#N canvas 657 377 762 607 10;
#X obj 504 139 oscformat /world/clear;
#X obj 456 176 s osc;
#X obj 281 153 bng 15 250 50 0 empty empty empty 0 -6 0 8 -262144 -1
-1;
#X floatatom 116 136 5 0 0 0 - - -, f 5;
#X text 116 161 move to create marbles;
#X text 115 39 MarbleBox;
#X floatatom 456 49 5 0 500 0 - - -, f 5;
#N canvas 5 46 454 304 (subpatch) 0;
#X array accel 1000 float 0;
#X coords 0 1 1000 0 200 140 1;
#X restore 429 353 graph;
#N canvas 248 256 771 745 createbox 0;
#X obj 34 18 inlet;
#X obj 34 130 / 2;
#X obj 34 165 -;
#X floatatom 34 195 5 0 0 0 - - -, f 5;
#X obj 70 130 / 2;
#X obj 70 165 -;
#X floatatom 70 195 5 0 0 0 - - -, f 5;
#X floatatom 178 195 5 0 0 0 - - -, f 5;
#X obj 34 98 unpack 0 0 0 0 0;
#X obj 106 130 / 2;
#X obj 106 165 +;
#X floatatom 106 195 5 0 0 0 - - -, f 5;
#X obj 142 129 / 2;
#X obj 142 165 +;
#X floatatom 142 195 5 0 0 0 - - -, f 5;
#X obj 178 128 / 2;
#X obj 10 98 bng 15 250 50 0 empty empty empty 17 7 0 10 -262144 -1
-1;
#X obj 10 257 pack 0 0 0 0 0 0 0 0 0 0 0 0 0;
#X obj 10 281 t l l l;
#X obj 293 360 s osc;
#X obj 34 46 bng 15 250 50 0 empty empty empty 17 7 0 10 -262144 -1
-1;
#X text 57 43 bang to create box;
#X msg 34 70 0.4 0.4 0.2 0.03 0.03;
#N canvas 343 318 391 301 texture 0;
#X obj 40 223 s osc;
#X obj 40 3 inlet;
#X obj 40 53 getdir;
#X obj 40 33 bng 15 250 50 0 empty empty empty 17 7 0 10 -262144 -1
-1;
#X obj 40 97 t s s s s s;
#X msg 40 75 symbol \$1/marble.tga;
#X msg 172 75 symbol \$1/bw1.tga;
#X msg 287 75 symbol \$1/bw2.tga;
#X msg 84 53 symbol ../textures;
#X obj 40 118 oscformat /world/leftside/texture/image;
#X obj 40 139 oscformat /world/rightside/texture/image;
#X obj 40 160 oscformat /world/backside/texture/image;
#X obj 40 181 oscformat /world/frontside/texture/image;
#X obj 40 202 oscformat /world/bottom/texture/image;
#X connect 1 0 3 0;
#X connect 2 0 5 0;
#X connect 3 0 2 0;
#X connect 3 0 8 0;
#X connect 4 0 13 0;
#X connect 4 1 12 0;
#X connect 4 2 11 0;
#X connect 4 3 10 0;
#X connect 4 4 9 0;
#X connect 5 0 4 0;
#X connect 8 0 6 0;
#X connect 8 0 7 0;
#X connect 8 0 5 0;
#X connect 9 0 0 0;
#X connect 10 0 0 0;
#X connect 11 0 0 0;
#X connect 12 0 0 0;
#X connect 13 0 0 0;
#X restore 69 282 pd texture;
#X obj 113 222 -;
#X obj 145 221 -;
#X obj 180 221 -;
#X floatatom 265 171 5 0 0 0 - - -, f 5;
#X msg 265 142 0.2;
#X obj 265 115 loadbang;
#X obj 70 219 * -1;
#X obj 34 219 * -1;
#X obj 288 465 oscformat /world/fixed/create;
#X obj 288 488 s osc;
#X msg 10 566 \$5 \$2 \$12;
#X msg 10 587 \$12 \$2 \$8;
#X msg 10 608 \$12 \$2 \$8;
#X msg 10 629 \$5 \$12 \$8;
#X msg 10 650 \$5 \$12 \$10;
#X obj 92 673 s osc;
#X obj 92 566 oscformat /world/bottom/size;
#X obj 92 587 oscformat /world/leftside/size;
#X obj 92 608 oscformat /world/rightside/size;
#X obj 92 629 oscformat /world/backside/size;
#X obj 92 650 oscformat /world/frontside/size;
#X msg 47 305 list leftside \$7 0 \$9;
#X obj 293 337 oscformat /world/prism/create;
#X msg 47 326 list rightside \$6 0 \$9;
#X msg 47 347 list backside 0 \$4 \$9;
#X msg 47 368 list frontside 0 \$3 \$11;
#X msg 47 389 list bottom 0 0 \$13;
#X msg 28 435 list fix1 leftside world;
#X msg 28 456 list fix2 rightside world;
#X msg 28 477 list fix3 backside world;
#X msg 28 498 list fix4 frontside world;
#X msg 28 520 list boxhinge bottom world;
#X connect 0 0 20 0;
#X connect 1 0 2 0;
#X connect 2 0 3 0;
#X connect 3 0 31 0;
#X connect 3 0 17 3;
#X connect 4 0 5 0;
#X connect 5 0 6 0;
#X connect 6 0 17 5;
#X connect 6 0 30 0;
#X connect 7 0 26 0;
#X connect 8 0 1 0;
#X connect 8 0 17 1;
#X connect 8 1 4 0;
#X connect 8 1 17 4;
#X connect 8 2 9 0;
#X connect 8 2 17 7;
#X connect 8 3 12 0;
#X connect 8 3 17 9;
#X connect 8 4 15 0;
#X connect 8 4 17 11;
#X connect 9 0 10 0;
#X connect 10 0 11 0;
#X connect 11 0 24 0;
#X connect 12 0 13 0;
#X connect 13 0 14 0;
#X connect 14 0 25 0;
#X connect 15 0 13 1;
#X connect 15 0 10 1;
#X connect 15 0 5 1;
#X connect 15 0 2 1;
#X connect 15 0 7 0;
#X connect 16 0 17 0;
#X connect 17 0 18 0;
#X connect 18 0 34 0;
#X connect 18 0 35 0;
#X connect 18 0 36 0;
#X connect 18 0 37 0;
#X connect 18 0 38 0;
#X connect 18 1 51 0;
#X connect 18 1 52 0;
#X connect 18 1 53 0;
#X connect 18 1 54 0;
#X connect 18 1 55 0;
#X connect 18 1 23 0;
#X connect 18 2 45 0;
#X connect 18 2 47 0;
#X connect 18 2 48 0;
#X connect 18 2 49 0;
#X connect 18 2 50 0;
#X connect 20 0 22 0;
#X connect 22 0 8 0;
#X connect 22 0 16 0;
#X connect 24 0 17 8;
#X connect 25 0 17 10;
#X connect 26 0 17 12;
#X connect 27 0 24 1;
#X connect 27 0 25 1;
#X connect 27 0 26 1;
#X connect 28 0 27 0;
#X connect 29 0 28 0;
#X connect 30 0 17 6;
#X connect 31 0 17 2;
#X connect 32 0 33 0;
#X connect 34 0 40 0;
#X connect 35 0 41 0;
#X connect 36 0 42 0;
#X connect 37 0 43 0;
#X connect 38 0 44 0;
#X connect 40 0 39 0;
#X connect 41 0 39 0;
#X connect 42 0 39 0;
#X connect 43 0 39 0;
#X connect 44 0 39 0;
#X connect 45 0 46 0;
#X connect 46 0 19 0;
#X connect 47 0 46 0;
#X connect 48 0 46 0;
#X connect 49 0 46 0;
#X connect 50 0 46 0;
#X connect 51 0 32 0;
#X connect 52 0 32 0;
#X connect 53 0 32 0;
#X connect 54 0 32 0;
#X connect 55 0 32 0;
#X restore 116 107 pd createbox;
#X obj 116 80 bng 15 250 50 0 empty empty empty 17 7 0 10 -262144 -1
-1;
#X text 139 81 bang to create box;
#N canvas 911 658 517 409 createmarble 0;
#X obj 393 365 s osc;
#X floatatom 28 54 5 0 0 0 - - -, f 5;
#X obj 55 25 + 1;
#X obj 28 100 t l l;
#X obj 29 26 f;
#X obj 28 77 pack 0 0 0;
#X obj 29 -3 inlet;
#X obj 88 -1 inlet;
#X obj 4 29 bng 15 250 50 0 empty empty empty 17 7 0 10 -262144 -1
-1;
#X obj 194 -1 % 8;
#N canvas 660 564 366 247 texture 0;
#X obj 27 63 makefilename /world/%ds/texture/image;
#X obj 150 105 getdir;
#X obj 150 86 bng 15 250 50 0 empty empty empty 17 7 0 10 -262144 -1
-1;
#X msg 27 181 \$1 \$2;
#X obj 27 155 pack s s;
#X obj 27 35 inlet;
#X obj 27 213 outlet;
#X obj 148 37 inlet;
#X msg 194 104 symbol ../textures;
#X obj 150 126 makefilename %s/grainy.tga;
#X connect 0 0 4 0;
#X connect 1 0 9 0;
#X connect 2 0 1 0;
#X connect 2 0 8 0;
#X connect 3 0 6 0;
#X connect 4 0 3 0;
#X connect 5 0 0 0;
#X connect 7 0 2 0;
#X connect 8 0 9 0;
#X connect 9 0 4 1;
#X restore 331 117 pd texture;
#X obj 145 171 oscformat /world/sphere/create;
#X msg 57 143 list \$1s \$3 \$3 \$2;
#X msg 103 206 set /world/\$1s/radius;
#X obj 50 229 oscformat;
#X obj 28 291 oscformat;
#X obj 4 347 oscformat /world/collide;
#X msg 4 324 1;
#X obj 293 257 oscformat;
#X msg 339 232 set /world/\$1s/stiffness;
#X msg 74 266 set /world/\$1s/mass;
#X msg 28 267 2;
#X msg 50 206 0.04;
#X msg 293 233 1500;
#X floatatom 200 86 5 0 0 0 - - -, f 5;
#X floatatom 147 86 5 0 0 0 - - -, f 5;
#X floatatom 235 27 5 0 0 0 - - -, f 5;
#X floatatom 116 42 5 0 0 0 - - -, f 5;
#X obj 157 24 + 10;
#X obj 194 55 / 8;
#X obj 157 51 / 12;
#X connect 1 0 5 0;
#X connect 2 0 4 1;
#X connect 2 0 9 0;
#X connect 3 0 10 0;
#X connect 3 0 22 0;
#X connect 3 0 21 0;
#X connect 3 0 23 0;
#X connect 3 1 12 0;
#X connect 3 1 10 1;
#X connect 3 1 13 0;
#X connect 3 1 20 0;
#X connect 3 1 19 0;
#X connect 4 0 2 0;
#X connect 4 0 1 0;
#X connect 5 0 3 0;
#X connect 6 0 4 0;
#X connect 6 0 8 0;
#X connect 7 0 4 1;
#X connect 8 0 17 0;
#X connect 9 0 26 0;
#X connect 9 0 28 0;
#X connect 9 0 29 0;
#X connect 11 0 0 0;
#X connect 12 0 11 0;
#X connect 13 0 14 0;
#X connect 14 0 0 0;
#X connect 15 0 0 0;
#X connect 16 0 0 0;
#X connect 17 0 16 0;
#X connect 19 0 18 0;
#X connect 20 0 15 0;
#X connect 21 0 15 0;
#X connect 22 0 14 0;
#X connect 23 0 18 0;
#X connect 28 0 27 0;
#X connect 28 0 30 0;
#X connect 29 0 5 2;
#X connect 29 0 24 0;
#X connect 30 0 5 1;
#X connect 30 0 25 0;
#X restore 281 176 pd createmarble;
#N canvas 67 283 490 340 connect 0;
#X obj 20 64 tgl 15 0 empty empty empty 17 7 0 10 -262144 -1 -1 0 1
;
#X msg 193 242 disconnect;
#X obj 20 114 tgl 15 0 empty empty empty 17 7 0 10 -262144 -1 -1 0
1;
#X msg 192 219 connect localhost 7774;
#X obj 52 191 r osc;
#X msg 20 42 1;
#X text 48 40 turn on graphics and haptics;
#X obj 20 0 inlet;
#X obj 278 167 s rosc;
#X msg 229 122 0;
#X obj 192 139 spigot 1;
#X obj 197 104 t b b;
#X obj 20 21 t b b;
#X obj 278 67 loadbang;
#X msg 278 92 listen 7778;
#X text 275 43 Receive on port 7778;
#X obj 278 117 netreceive -u -b;
#X obj 278 142 oscparse;
#X obj 20 221 list prepend send;
#X obj 20 244 list trim;
#X obj 20 267 netsend -u -b;
#X obj 20 84 oscformat /haptics/enable;
#X obj 20 135 oscformat /graphics/enable;
#X connect 0 0 21 0;
#X connect 1 0 20 0;
#X connect 2 0 22 0;
#X connect 3 0 20 0;
#X connect 4 0 18 0;
#X connect 5 0 18 0;
#X connect 7 0 12 0;
#X connect 10 0 3 0;
#X connect 12 0 10 0;
#X connect 12 1 11 0;
#X connect 13 0 14 0;
#X connect 14 0 16 0;
#X connect 16 0 17 0;
#X connect 17 0 8 0;
#X connect 18 0 19 0;
#X connect 19 0 20 0;
#X connect 21 0 18 0;
#X connect 22 0 18 0;
#X restore 17 129 pd connect;
#X obj 17 108 bng 15 250 50 0 empty empty empty 17 7 0 10 -262144 -1
-1;
#N canvas 298 168 347 393 smash 0;
#X obj 32 15 inlet;
#X msg 32 241 1;
#X obj 32 265 oscformat /world/s1/collide/get;
#X obj 32 285 oscformat /world/s2/collide/get;
#X obj 32 305 oscformat /world/s3/collide/get;
#X obj 32 328 s osc;
#X obj 71 121 oscformat /world/sphere/create;
#X msg 71 100 list s3 0 0 0.1;
#X msg 71 80 list s2 0 -0.1 0;
#X msg 71 60 list s1 0 0.1 0;
#X obj 116 170 oscformat /world/s1/force;
#X obj 116 190 oscformat /world/s2/force;
#X obj 116 210 oscformat /world/s3/force;
#X msg 51 210 0 0 -0.5;
#X msg 51 190 0 0.5 0;
#X msg 51 170 0 -0.5 0;
#X obj 116 233 s osc;
#X obj 71 144 s osc;
#X obj 32 38 t b b b;
#X connect 0 0 18 0;
#X connect 1 0 2 0;
#X connect 1 0 3 0;
#X connect 1 0 4 0;
#X connect 2 0 5 0;
#X connect 3 0 5 0;
#X connect 4 0 5 0;
#X connect 6 0 17 0;
#X connect 7 0 6 0;
#X connect 8 0 6 0;
#X connect 9 0 6 0;
#X connect 10 0 16 0;
#X connect 11 0 16 0;
#X connect 12 0 16 0;
#X connect 13 0 12 0;
#X connect 14 0 11 0;
#X connect 15 0 10 0;
#X connect 18 0 1 0;
#X connect 18 1 15 0;
#X connect 18 1 14 0;
#X connect 18 1 13 0;
#X connect 18 2 9 0;
#X connect 18 2 8 0;
#X connect 18 2 7 0;
#X restore 53 287 pd smash;
#X obj 53 263 bng 15 250 50 0 empty empty empty 17 7 0 10 -262144 -1
-1;
#X obj 56 404 tgl 15 0 empty empty empty 17 7 0 10 -262144 -1 -1 1
1;
#X text 80 404 audio;
#N canvas 150 607 510 360 beepcollide 0;
#X obj 79 73 route world;
#X obj 79 159 print collided;
#X obj 79 26 r rosc;
#X obj 26 272 dac~;
#X obj 31 11 inlet;
#X obj 31 229 *~;
#X obj 79 116 route collide;
#X obj 92 94 route s*;
#X obj 140 138 unpack s s 0;
#X obj 228 175 clip 0 1;
#X msg 209 14 \; pd dsp 1;
#X obj 209 -6 select 1;
#N canvas 67 89 882 540 modal 0;
#N canvas 0 22 450 300 (subpatch) 0;
#X array array2 64 float 0;
#X coords 0 1 63 -1 200 140 1;
#X restore 134 358 graph;
#N canvas 0 22 450 300 (subpatch) 0;
#X array array3 64 float 3;
#A 0 -0.0857145 0.485715 0.0142857 -0.0142857 -0.0142857 0 0 0 0 0
0 0 0 0 0 0 0 0 0 0 0 0 0 0 0 0 0 0 0 0 0 0 0 0 0 0 0 0 0 0 0 0 0 0
0 0 0 0 0 0 0 0 0 0 0 0 0 0 0 0 0 0 0 0;
#X coords 0 1 63 -1 200 140 1;
#X restore 458 348 graph;
#X obj 126 67 tabplay~ array3;
#X obj 82 25 bng 15 250 50 0 empty empty empty 0 -6 0 8 -262144 -1
-1;
#X msg 484 294 \; array3 const 0 \;;
#X obj 591 321 tabwrite array3;
#X floatatom 594 265 5 0 0 0 - - -, f 5;
#X floatatom 151 137 5 0 0 0 - - -, f 5;
#X obj 134 314 tabwrite~ array2;
#X obj 168 270 bang~;
#X msg 398 132 1 0.5 0.3 0.2 0.1;
#X obj 228 49 spigot;
#N canvas 0 22 458 308 bangss 0;
#X obj 161 53 block~ 4096;
#X obj 103 116 bang~;
#X obj 105 185 outlet;
#X obj 170 154 s bangsss;
#X connect 1 0 3 0;
#X restore 188 17 pd bangss;
#X obj 113 24 bng 15 250 50 0 empty empty empty 0 -6 0 8 -262144 -1
-1;
#X msg 372 54 0;
#X msg 336 29 1;
#X obj 273 15 r bangsss;
#X obj 371 27 delay 1000;
#X floatatom 681 263 5 0 0 0 - - -, f 5;
#X msg 602 131 750 750 800 650 750;
#X obj 434 60 loadbang;
#X obj 399 89 t b b;
#X obj 133 270 *~ 1;
#X text 148 157 fund. freq;
#X text 244 158 overtone series;
#X text 404 151 amplitude series;
#X text 608 157 exp. decay rates in ms;
#X text 473 250 Impulse table (draw an impulse here);
#X text 589 174 (decays by 20 dB in the time given);
#X text 109 44 click the bangs;
#X obj 410 61 bng 15 250 50 0 empty empty empty 17 7 0 10 -262144 -1
-1;
#X obj 122 110 *~;
#X obj 26 -11 r hit;
#X obj 34 26 t b f;
#X msg 231 135 1 3 5 6.18 8.12;
#X msg 38 79 1;
#X msg 275 93 62;
#X obj 74 -10 inlet;
#X obj 155 106 inlet;
#N canvas 0 22 731 433 perc_inst1 0;
#X obj 118 113 * 1;
#X obj 208 115 * 3;
#X obj 294 116 * 5;
#X obj 376 116 * 6.12372;
#X obj 453 119 * 7.07107;
#X obj 118 148 pack f f;
#X obj 208 150 pack f f;
#X obj 294 151 pack f f;
#X obj 376 151 pack f f;
#X obj 453 154 pack f f;
#X obj 26 20 inlet~;
#X obj 114 23 inlet;
#X text 94 5 fundamental freq.;
#X obj 233 25 inlet;
#X obj 207 58 unpack f f f f f;
#X text 263 8 overtone series;
#X obj 122 216 sig~;
#X obj 98 263 *~;
#X obj 212 214 sig~;
#X obj 188 261 *~;
#X obj 295 216 sig~;
#X obj 271 263 *~;
#X obj 380 217 sig~;
#X obj 356 264 *~;
#X obj 458 216 sig~;
#X obj 434 263 *~;
#X obj 409 23 inlet;
#X obj 383 56 unpack 0 0 0 0 0;
#X obj 114 337 +~;
#X obj 111 398 outlet~;
#X obj 564 21 inlet;
#X obj 538 54 unpack 1 1 1 1 1;
#X text 408 4 amplitudes;
#X text 540 6 decay by 10 \, time in ms;
#N canvas 0 22 353 493 ds 0;
#X obj 12 384 biquad~;
#X obj 57 351 pack f f f f f;
#X obj 145 188 exp;
#X obj 156 98 * 44.1;
#X text 209 96 ms to samples;
#X obj 156 119 t b f;
#X obj 145 154 / 44100;
#X msg 91 118 -2.30259;
#X obj 145 219 t f f;
#X obj 17 148 * 6.28319;
#X obj 63 208 sin;
#X obj 26 210 cos;
#X obj 60 257 * 2;
#X obj 45 290 * 1;
#X obj 92 256 t f f;
#X obj 92 279 * 1;
#X obj 82 313 * -1;
#X msg 132 302 0;
#X obj 166 303 * 1;
#X msg 199 302 0;
#X obj 32 119 / 44100;
#X obj 34 180 t f f;
#X text 176 189 a;
#X text 13 229 cos and sin of b;
#X obj 32 75 unpack f f;
#X obj 56 460 outlet~;
#X obj 11 31 inlet~;
#X obj 68 15 inlet;
#X text 113 27 takes a list of arguments;
#X text 94 39 fundamental freq \, and exponential;
#X text 197 50 decay time in ms;
#X obj 88 95 f;
#X obj 33 98 t f b;
#X connect 0 0 25 0;
#X connect 1 0 0 0;
#X connect 2 0 8 0;
#X connect 3 0 5 0;
#X connect 5 0 7 0;
#X connect 5 1 6 1;
#X connect 6 0 2 0;
#X connect 7 0 6 0;
#X connect 8 0 12 0;
#X connect 8 1 14 0;
#X connect 8 1 17 0;
#X connect 8 1 19 0;
#X connect 8 1 18 1;
#X connect 9 0 21 0;
#X connect 10 0 18 0;
#X connect 11 0 13 0;
#X connect 12 0 13 1;
#X connect 13 0 1 0;
#X connect 14 0 15 0;
#X connect 14 1 15 1;
#X connect 15 0 16 0;
#X connect 16 0 1 1;
#X connect 17 0 1 2;
#X connect 18 0 1 3;
#X connect 19 0 1 4;
#X connect 20 0 9 0;
#X connect 21 0 11 0;
#X connect 21 1 10 0;
#X connect 24 0 32 0;
#X connect 24 1 31 1;
#X connect 26 0 0 0;
#X connect 27 0 24 0;
#X connect 31 0 3 0;
#X connect 32 0 20 0;
#X connect 32 1 31 0;
#X restore 434 183 pd ds;
#N canvas 0 22 353 493 ds 0;
#X obj 12 384 biquad~;
#X obj 57 351 pack f f f f f;
#X obj 145 188 exp;
#X obj 156 98 * 44.1;
#X text 209 96 ms to samples;
#X obj 156 119 t b f;
#X obj 145 154 / 44100;
#X msg 91 118 -2.30259;
#X obj 145 219 t f f;
#X obj 17 148 * 6.28319;
#X obj 63 208 sin;
#X obj 26 210 cos;
#X obj 60 257 * 2;
#X obj 45 290 * 1;
#X obj 92 256 t f f;
#X obj 92 279 * 1;
#X obj 82 313 * -1;
#X msg 132 302 0;
#X obj 166 303 * 1;
#X msg 199 302 0;
#X obj 32 119 / 44100;
#X obj 34 180 t f f;
#X text 176 189 a;
#X text 13 229 cos and sin of b;
#X obj 32 75 unpack f f;
#X obj 56 460 outlet~;
#X obj 11 31 inlet~;
#X obj 68 15 inlet;
#X text 113 27 takes a list of arguments;
#X text 94 39 fundamental freq \, and exponential;
#X text 197 50 decay time in ms;
#X obj 88 95 f;
#X obj 33 98 t f b;
#X connect 0 0 25 0;
#X connect 1 0 0 0;
#X connect 2 0 8 0;
#X connect 3 0 5 0;
#X connect 5 0 7 0;
#X connect 5 1 6 1;
#X connect 6 0 2 0;
#X connect 7 0 6 0;
#X connect 8 0 12 0;
#X connect 8 1 14 0;
#X connect 8 1 17 0;
#X connect 8 1 19 0;
#X connect 8 1 18 1;
#X connect 9 0 21 0;
#X connect 10 0 18 0;
#X connect 11 0 13 0;
#X connect 12 0 13 1;
#X connect 13 0 1 0;
#X connect 14 0 15 0;
#X connect 14 1 15 1;
#X connect 15 0 16 0;
#X connect 16 0 1 1;
#X connect 17 0 1 2;
#X connect 18 0 1 3;
#X connect 19 0 1 4;
#X connect 20 0 9 0;
#X connect 21 0 11 0;
#X connect 21 1 10 0;
#X connect 24 0 32 0;
#X connect 24 1 31 1;
#X connect 26 0 0 0;
#X connect 27 0 24 0;
#X connect 31 0 3 0;
#X connect 32 0 20 0;
#X connect 32 1 31 0;
#X restore 356 183 pd ds;
#N canvas 0 22 353 493 ds 0;
#X obj 12 384 biquad~;
#X obj 57 351 pack f f f f f;
#X obj 145 188 exp;
#X obj 156 98 * 44.1;
#X text 209 96 ms to samples;
#X obj 156 119 t b f;
#X obj 145 154 / 44100;
#X msg 91 118 -2.30259;
#X obj 145 219 t f f;
#X obj 17 148 * 6.28319;
#X obj 63 208 sin;
#X obj 26 210 cos;
#X obj 60 257 * 2;
#X obj 45 290 * 1;
#X obj 92 256 t f f;
#X obj 92 279 * 1;
#X obj 82 313 * -1;
#X msg 132 302 0;
#X obj 166 303 * 1;
#X msg 199 302 0;
#X obj 32 119 / 44100;
#X obj 34 180 t f f;
#X text 176 189 a;
#X text 13 229 cos and sin of b;
#X obj 32 75 unpack f f;
#X obj 56 460 outlet~;
#X obj 11 31 inlet~;
#X obj 68 15 inlet;
#X text 113 27 takes a list of arguments;
#X text 94 39 fundamental freq \, and exponential;
#X text 197 50 decay time in ms;
#X obj 88 95 f;
#X obj 33 98 t f b;
#X connect 0 0 25 0;
#X connect 1 0 0 0;
#X connect 2 0 8 0;
#X connect 3 0 5 0;
#X connect 5 0 7 0;
#X connect 5 1 6 1;
#X connect 6 0 2 0;
#X connect 7 0 6 0;
#X connect 8 0 12 0;
#X connect 8 1 14 0;
#X connect 8 1 17 0;
#X connect 8 1 19 0;
#X connect 8 1 18 1;
#X connect 9 0 21 0;
#X connect 10 0 18 0;
#X connect 11 0 13 0;
#X connect 12 0 13 1;
#X connect 13 0 1 0;
#X connect 14 0 15 0;
#X connect 14 1 15 1;
#X connect 15 0 16 0;
#X connect 16 0 1 1;
#X connect 17 0 1 2;
#X connect 18 0 1 3;
#X connect 19 0 1 4;
#X connect 20 0 9 0;
#X connect 21 0 11 0;
#X connect 21 1 10 0;
#X connect 24 0 32 0;
#X connect 24 1 31 1;
#X connect 26 0 0 0;
#X connect 27 0 24 0;
#X connect 31 0 3 0;
#X connect 32 0 20 0;
#X connect 32 1 31 0;
#X restore 272 184 pd ds;
#N canvas 0 22 353 493 ds 0;
#X obj 12 384 biquad~;
#X obj 57 351 pack f f f f f;
#X obj 145 188 exp;
#X obj 156 98 * 44.1;
#X text 209 96 ms to samples;
#X obj 156 119 t b f;
#X obj 145 154 / 44100;
#X msg 91 118 -2.30259;
#X obj 145 219 t f f;
#X obj 17 148 * 6.28319;
#X obj 63 208 sin;
#X obj 26 210 cos;
#X obj 60 257 * 2;
#X obj 45 290 * 1;
#X obj 92 256 t f f;
#X obj 92 279 * 1;
#X obj 82 313 * -1;
#X msg 132 302 0;
#X obj 166 303 * 1;
#X msg 199 302 0;
#X obj 32 119 / 44100;
#X obj 34 180 t f f;
#X text 176 189 a;
#X text 13 229 cos and sin of b;
#X obj 32 75 unpack f f;
#X obj 56 460 outlet~;
#X obj 11 31 inlet~;
#X obj 68 15 inlet;
#X text 113 27 takes a list of arguments;
#X text 94 39 fundamental freq \, and exponential;
#X text 197 50 decay time in ms;
#X obj 88 95 f;
#X obj 33 98 t f b;
#X connect 0 0 25 0;
#X connect 1 0 0 0;
#X connect 2 0 8 0;
#X connect 3 0 5 0;
#X connect 5 0 7 0;
#X connect 5 1 6 1;
#X connect 6 0 2 0;
#X connect 7 0 6 0;
#X connect 8 0 12 0;
#X connect 8 1 14 0;
#X connect 8 1 17 0;
#X connect 8 1 19 0;
#X connect 8 1 18 1;
#X connect 9 0 21 0;
#X connect 10 0 18 0;
#X connect 11 0 13 0;
#X connect 12 0 13 1;
#X connect 13 0 1 0;
#X connect 14 0 15 0;
#X connect 14 1 15 1;
#X connect 15 0 16 0;
#X connect 16 0 1 1;
#X connect 17 0 1 2;
#X connect 18 0 1 3;
#X connect 19 0 1 4;
#X connect 20 0 9 0;
#X connect 21 0 11 0;
#X connect 21 1 10 0;
#X connect 24 0 32 0;
#X connect 24 1 31 1;
#X connect 26 0 0 0;
#X connect 27 0 24 0;
#X connect 31 0 3 0;
#X connect 32 0 20 0;
#X connect 32 1 31 0;
#X restore 189 183 pd ds;
#N canvas 0 22 353 493 ds 0;
#X obj 12 384 biquad~;
#X obj 57 351 pack f f f f f;
#X obj 145 188 exp;
#X obj 156 98 * 44.1;
#X text 209 96 ms to samples;
#X obj 156 119 t b f;
#X obj 145 154 / 44100;
#X msg 91 118 -2.30259;
#X obj 145 219 t f f;
#X obj 17 148 * 6.28319;
#X obj 63 208 sin;
#X obj 26 210 cos;
#X obj 60 257 * 2;
#X obj 45 290 * 1;
#X obj 92 256 t f f;
#X obj 92 279 * 1;
#X obj 82 313 * -1;
#X msg 132 302 0;
#X obj 166 303 * 1;
#X msg 199 302 0;
#X obj 32 119 / 44100;
#X obj 34 180 t f f;
#X text 176 189 a;
#X text 13 229 cos and sin of b;
#X obj 32 75 unpack f f;
#X obj 56 460 outlet~;
#X obj 11 31 inlet~;
#X obj 68 15 inlet;
#X text 113 27 takes a list of arguments;
#X text 94 39 fundamental freq \, and exponential;
#X text 197 50 decay time in ms;
#X obj 88 95 f;
#X obj 33 98 t f b;
#X connect 0 0 25 0;
#X connect 1 0 0 0;
#X connect 2 0 8 0;
#X connect 3 0 5 0;
#X connect 5 0 7 0;
#X connect 5 1 6 1;
#X connect 6 0 2 0;
#X connect 7 0 6 0;
#X connect 8 0 12 0;
#X connect 8 1 14 0;
#X connect 8 1 17 0;
#X connect 8 1 19 0;
#X connect 8 1 18 1;
#X connect 9 0 21 0;
#X connect 10 0 18 0;
#X connect 11 0 13 0;
#X connect 12 0 13 1;
#X connect 13 0 1 0;
#X connect 14 0 15 0;
#X connect 14 1 15 1;
#X connect 15 0 16 0;
#X connect 16 0 1 1;
#X connect 17 0 1 2;
#X connect 18 0 1 3;
#X connect 19 0 1 4;
#X connect 20 0 9 0;
#X connect 21 0 11 0;
#X connect 21 1 10 0;
#X connect 24 0 32 0;
#X connect 24 1 31 1;
#X connect 26 0 0 0;
#X connect 27 0 24 0;
#X connect 31 0 3 0;
#X connect 32 0 20 0;
#X connect 32 1 31 0;
#X restore 99 182 pd ds;
#X connect 0 0 5 0;
#X connect 1 0 6 0;
#X connect 2 0 7 0;
#X connect 3 0 8 0;
#X connect 4 0 9 0;
#X connect 5 0 38 1;
#X connect 6 0 37 1;
#X connect 7 0 36 1;
#X connect 8 0 35 1;
#X connect 9 0 34 1;
#X connect 10 0 34 0;
#X connect 10 0 35 0;
#X connect 10 0 36 0;
#X connect 10 0 37 0;
#X connect 10 0 38 0;
#X connect 11 0 0 0;
#X connect 11 0 1 0;
#X connect 11 0 2 0;
#X connect 11 0 3 0;
#X connect 11 0 4 0;
#X connect 13 0 14 0;
#X connect 14 0 0 1;
#X connect 14 1 1 1;
#X connect 14 2 2 1;
#X connect 14 3 3 1;
#X connect 14 4 4 1;
#X connect 16 0 17 1;
#X connect 17 0 28 0;
#X connect 18 0 19 1;
#X connect 19 0 28 0;
#X connect 20 0 21 1;
#X connect 21 0 28 0;
#X connect 22 0 23 1;
#X connect 23 0 28 0;
#X connect 24 0 25 1;
#X connect 25 0 28 0;
#X connect 26 0 27 0;
#X connect 27 0 16 0;
#X connect 27 1 18 0;
#X connect 27 2 20 0;
#X connect 27 3 22 0;
#X connect 27 4 24 0;
#X connect 28 0 29 0;
#X connect 30 0 31 0;
#X connect 31 0 5 1;
#X connect 31 1 6 1;
#X connect 31 2 7 1;
#X connect 31 3 8 1;
#X connect 31 4 9 1;
#X connect 34 0 25 0;
#X connect 35 0 23 0;
#X connect 36 0 21 0;
#X connect 37 0 19 0;
#X connect 38 0 17 0;
#X restore 132 225 pd perc_inst1;
#X obj 37 58 loadbang;
#X obj 305 325 outlet~;
#X obj 306 261 *~ 1;
#X text 464 1 This modal synthesis patch (and all subpatches herein)
;
#X text 465 16 was posted to the PD mailing list by Charles Henry \,
2007;
#X text 464 36 Distributed here with permission.;
#X connect 2 0 31 0;
#X connect 3 0 2 0;
#X connect 6 0 5 0;
#X connect 7 0 39 1;
#X connect 9 0 8 0;
#X connect 10 0 39 3;
#X connect 11 0 2 0;
#X connect 13 0 15 0;
#X connect 13 0 17 0;
#X connect 14 0 11 1;
#X connect 15 0 11 1;
#X connect 16 0 11 0;
#X connect 17 0 14 0;
#X connect 18 0 5 1;
#X connect 19 0 39 4;
#X connect 20 0 21 0;
#X connect 21 0 36 0;
#X connect 21 1 34 0;
#X connect 21 1 10 0;
#X connect 21 1 19 0;
#X connect 22 0 8 0;
#X connect 30 0 21 0;
#X connect 31 0 39 0;
#X connect 32 0 33 0;
#X connect 33 0 2 0;
#X connect 33 1 31 1;
#X connect 34 0 39 2;
#X connect 35 0 31 1;
#X connect 36 0 7 0;
#X connect 37 0 33 0;
#X connect 38 0 7 0;
#X connect 39 0 22 0;
#X connect 39 0 42 0;
#X connect 40 0 35 0;
#X connect 42 0 41 0;
#X restore 228 208 pd modal;
#X obj 288 175 inlet;
#X obj 228 156 * 10;
#X obj 79 48 route list;
#X connect 0 0 6 0;
#X connect 0 0 7 0;
#X connect 2 0 15 0;
#X connect 4 0 5 0;
#X connect 4 0 11 0;
#X connect 5 0 3 0;
#X connect 5 0 3 1;
#X connect 6 0 1 0;
#X connect 6 0 8 0;
#X connect 7 0 6 0;
#X connect 8 2 14 0;
#X connect 9 0 12 0;
#X connect 11 0 10 0;
#X connect 12 0 5 1;
#X connect 13 0 12 1;
#X connect 14 0 9 0;
#X connect 15 0 0 0;
#X restore 56 428 pd beepcollide;
#X msg 366 152 2;
#N canvas 67 287 544 400 s3_accel 0;
#X obj 33 162 s osc;
#X obj 33 32 tgl 15 0 empty empty empty 17 7 0 10 -262144 -1 -1 0 1
;
#X obj 162 308 route magnitude;
#X floatatom 289 232 10 0 0 0 - - -, f 10;
#X floatatom 288 251 10 0 0 0 - - -, f 10;
#X text 369 251 velocity;
#X text 368 232 acceleration;
#X obj 313 311 tabwrite accel;
#X obj 371 280 f;
#X obj 402 280 + 1;
#X obj 345 277 bng 15 250 50 0 empty empty empty 17 7 0 10 -262144
-1 -1;
#X obj 429 299 mod 1000;
#X obj 291 283 * 10;
#X obj 23 238 route world;
#X obj 23 306 route magnitude;
#X obj 24 281 route velocity acceleration;
#X obj 33 10 inlet;
#X obj 24 210 r rosc;
#X obj 217 255 outlet;
#X obj 237 233 outlet;
#X obj 50 135 oscformat /world/3s/destroy;
#X obj 23 260 route 3s;
#X obj 33 52 * 30;
#X obj 33 75 oscformat /world/3s/velocity/magnitude/get;
#X obj 33 97 oscformat /world/3s/acceleration/magnitude/get;
#X connect 1 0 22 0;
#X connect 2 0 3 0;
#X connect 3 0 10 0;
#X connect 3 0 12 0;
#X connect 3 0 19 0;
#X connect 4 0 18 0;
#X connect 8 0 9 0;
#X connect 9 0 11 0;
#X connect 10 0 8 0;
#X connect 11 0 8 1;
#X connect 11 0 7 1;
#X connect 12 0 7 0;
#X connect 13 0 21 0;
#X connect 14 0 4 0;
#X connect 15 0 14 0;
#X connect 15 1 2 0;
#X connect 16 0 1 0;
#X connect 17 0 13 0;
#X connect 20 0 0 0;
#X connect 21 0 15 0;
#X connect 22 0 23 0;
#X connect 22 0 24 0;
#X connect 23 0 0 0;
#X connect 24 0 0 0;
#X restore 258 417 pd s3_accel;
#X obj 258 395 tgl 15 0 empty empty empty 17 7 0 10 -262144 -1 -1 0
1;
#X floatatom 258 454 10 0 0 0 - - -, f 10;
#X floatatom 257 473 10 0 0 0 - - -, f 10;
#X text 338 473 velocity;
#X text 337 454 acceleration;
#X text 256 355 Tracks acceleration;
#X text 258 369 of 3rd marble.;
#X text 52 241 Smash 3 marbles together;
#X text 57 452 Also makes sound;
#X text 56 464 for MarbleBox demo.;
#X text 456 26 Give it some gravity;
#X text 511 161 clear the world;
#X text 330 136 reset counter;
#X text 54 383 objects collide;
#X text 55 369 Beep when any two;
#N canvas 989 145 546 454 forcestick 0;
#X obj 21 54 bng 15 250 50 0 empty empty empty 0 -6 0 8 -262144 -1
-1;
#X text 77 17 Force Stick;
#X obj 21 73 t b b b b b;
#X obj 22 15 inlet;
#X obj 21 119 oscformat /world/prism/create;
#X msg 21 96 list stick 0 0 0.15;
#X obj 21 176 oscformat /world/stick/size;
#X msg 21 153 0.2 0.02 0.3;
#X obj 21 235 oscformat /world/stick/mass;
#X msg 21 212 2;
#X obj 21 291 oscformat /world/hinge/create;
#X msg 21 268 list c1 stick world 0 0 0 1 0 0;
#X obj 21 340 oscformat /world/c1/response/spring;
#X obj 21 365 s osc;
#X msg 21 317 0.2 0.01;
#X obj 230 130 s osc;
#X obj 287 164 r rosc;
#X obj 287 187 route list;
#X obj 287 210 route world;
#X obj 287 233 route stick;
#X obj 287 256 route force;
#X msg 230 82 100;
#X obj 286 279 unpack 0 0 0;
#X floatatom 287 302 15 0 0 0 - - -, f 15;
#X floatatom 312 321 15 0 0 0 - - -, f 15;
#X floatatom 327 341 15 0 0 0 - - -, f 15;
#X obj 230 105 oscformat /world/stick/force/magnitude/get;
#X obj 268 368 route magnitude;
#X floatatom 267 391 15 0 0 0 - - -, f 15;
#X text 230 44 example of how to get the force of the cursor on the
stick;
#X connect 0 0 2 0;
#X connect 2 0 14 0;
#X connect 2 1 11 0;
#X connect 2 2 9 0;
#X connect 2 3 7 0;
#X connect 2 4 5 0;
#X connect 3 0 0 0;
#X connect 4 0 13 0;
#X connect 5 0 4 0;
#X connect 6 0 13 0;
#X connect 7 0 6 0;
#X connect 8 0 13 0;
#X connect 9 0 8 0;
#X connect 10 0 13 0;
#X connect 11 0 10 0;
#X connect 12 0 13 0;
#X connect 14 0 12 0;
#X connect 16 0 17 0;
#X connect 17 0 18 0;
#X connect 18 0 19 0;
#X connect 19 0 20 0;
#X connect 20 0 22 0;
#X connect 20 0 27 0;
#X connect 21 0 26 0;
#X connect 22 0 23 0;
#X connect 22 1 24 0;
#X connect 22 2 25 0;
#X connect 26 0 15 0;
#X connect 27 0 28 0;
#X restore 340 285 pd forcestick;
#X obj 340 266 bng 15 250 50 0 empty empty empty 17 7 0 10 -262144
-1 -1;
#X text 338 245 Force Stick;
#N canvas 707 116 525 300 audioforce 0;
#X obj 25 32 r rosc;
#X floatatom 25 142 10 0 0 0 - - -, f 10;
#X obj 25 96 route c1;
#X obj 208 169 osc~;
#X obj 232 245 dac~;
#X floatatom 249 171 5 0 0 0 - - -, f 5;
#X obj 230 216 *~;
#X obj 295 170 inlet;
#X obj 295 246 s osc;
#X obj 25 74 route world;
#X obj 25 118 route torque;
#X obj 209 145 * 1000;
#X obj 26 53 route list;
#X obj 295 223 oscformat /world/c1/torque/get;
#X obj 295 200 * 10;
#X text 328 200 polling time (ms);
#X text 212 124 scaling factor (torque -> Hz);
#X connect 0 0 12 0;
#X connect 2 0 10 0;
#X connect 3 0 6 0;
#X connect 6 0 4 0;
#X connect 6 0 4 1;
#X connect 7 0 6 1;
#X connect 7 0 14 0;
#X connect 9 0 2 0;
#X connect 10 0 11 0;
#X connect 10 0 1 0;
#X connect 11 0 3 0;
#X connect 11 0 5 0;
#X connect 12 0 9 0;
#X connect 13 0 8 0;
#X connect 14 0 13 0;
#X restore 472 284 pd audioforce;
#X obj 472 261 tgl 15 0 empty empty empty 17 7 0 10 -262144 -1 -1 0
1;
#X text 496 261 audio;
#X text 14 -17 Test patch for DIMPLE: The Dynamic Interactive Musically
PhysicaL Environment;
#X obj 22 349 loadbang;
#X msg 22 370 1;
#X text 15 87 Initialize;
#X text 15 76 Step 1:;
#X text 138 70 Step 2:;
#X text 455 15 Step 3:;
#X text 115 150 Step 4:;
#X text 17 217 Other demonstrations:;
#X text 21 328 Don't forget to turn on DSP!;
#N canvas 1017 128 801 569 grab 0;
#X obj 37 361 s osc;
#X obj 231 19 inlet;
#X obj 107 75 t b b b;
#X obj 231 45 route sphere box none;
#X obj 312 276 t b b b;
#X obj 293 514 s osc;
#X obj 432 149 s osc;
#X obj 37 336 oscformat /world/sphere_proxy/position;
#X msg 37 313 0 0 0.5;
#X obj 146 120 oscformat /world/sphere/create;
#X obj 126 169 oscformat /world/sphere_proxy/radius;
#X msg 126 146 0.03;
#X obj 107 193 oscformat /world/sphere_proxy/grab;
#X obj 125 243 oscformat /world/sphere_proxy/mass;
#X msg 125 220 0.001;
#X obj 107 268 s osc;
#X obj 412 327 oscformat /world/prism/create;
#X msg 412 304 list box_proxy 0 0.2 0;
#X obj 334 373 oscformat /world/box_proxy/size;
#X msg 334 350 0.1 0.1 0.1;
#X obj 332 426 oscformat /world/box_proxy/mass;
#X msg 332 403 1;
#X obj 296 473 oscformat /world/box_proxy/color;
#X msg 296 450 0.7 0.4 0.2;
#X obj 527 479 oscformat /world/box_proxy/destroy;
#X obj 527 460 bng 15 250 50 0 empty empty empty 17 7 0 10 -262144
-1 -1;
#X obj 94 472 oscformat /world/box_proxy/grab;
#X obj 432 127 oscformat /world/drop;
#X obj 432 108 bng 15 250 50 0 empty empty empty 17 7 0 10 -262144
-1 -1;
#X msg 146 97 list sphere_proxy 0 0 0;
#X obj 83 143 bng 15 250 50 0 empty empty empty 17 7 0 10 -262144 -1
-1;
#X obj 595 171 s osc;
#X floatatom 595 127 5 0 0 0 - - -, f 5;
#X obj 595 149 oscformat /world/grab/feedback;
#X obj 594 90 s osc;
#X floatatom 594 46 5 0 0 0 - - -, f 5;
#X obj 594 68 oscformat /world/grab/stiffness;
#X obj 596 257 s osc;
#X floatatom 596 213 5 0 0 0 - - -, f 5;
#X obj 596 235 oscformat /world/grab/stiffness;
#X text 597 21 grab spring parameters;
#X connect 1 0 3 0;
#X connect 2 1 11 0;
#X connect 2 1 14 0;
#X connect 2 2 29 0;
#X connect 3 0 2 0;
#X connect 3 1 4 0;
#X connect 3 2 28 0;
#X connect 4 0 26 0;
#X connect 4 1 19 0;
#X connect 4 1 21 0;
#X connect 4 1 23 0;
#X connect 4 2 17 0;
#X connect 7 0 0 0;
#X connect 8 0 7 0;
#X connect 9 0 15 0;
#X connect 10 0 15 0;
#X connect 11 0 10 0;
#X connect 12 0 15 0;
#X connect 13 0 15 0;
#X connect 14 0 13 0;
#X connect 16 0 5 0;
#X connect 17 0 16 0;
#X connect 18 0 5 0;
#X connect 19 0 18 0;
#X connect 20 0 5 0;
#X connect 21 0 20 0;
#X connect 22 0 5 0;
#X connect 23 0 22 0;
#X connect 24 0 5 0;
#X connect 25 0 24 0;
#X connect 26 0 5 0;
#X connect 27 0 6 0;
#X connect 28 0 27 0;
#X connect 29 0 9 0;
#X connect 30 0 12 0;
#X connect 32 0 33 0;
#X connect 33 0 31 0;
#X connect 35 0 36 0;
#X connect 36 0 34 0;
#X connect 38 0 39 0;
#X connect 39 0 37 0;
#X restore 223 304 pd grab;
#X msg 177 273 sphere;
#X msg 223 273 box;
#X msg 251 273 none;
#N canvas 307 188 691 688 snake 0;
#X obj 28 14 inlet;
#N canvas 67 89 450 300 itercount 0;
#X obj 86 110 until;
#X obj 89 170 f;
#X obj 120 172 + 1;
#X obj 164 172 sel 0;
#X obj 89 62 inlet;
#X obj 88 240 outlet;
#X msg 105 138 0;
#X obj 90 87 t f b;
#X connect 0 0 1 0;
#X connect 1 0 2 0;
#X connect 1 0 5 0;
#X connect 2 0 1 1;
#X connect 2 0 3 0;
#X connect 3 0 0 1;
#X connect 4 0 7 0;
#X connect 6 0 1 1;
#X connect 7 0 0 0;
#X connect 7 1 6 0;
#X restore 30 67 pd itercount;
#X obj 31 188 pack 0 0;
#X obj 30 86 t f f;
#X obj 31 214 t l l l;
#X obj 163 105 sel 0;
#X obj 222 127 - 1;
#X obj 190 155 pack 0 0 0;
#X obj 348 147 dac~;
#X obj 347 120 *~;
#X obj 411 147 / 127;
#X obj 411 12 vsl 15 128 0 127 0 0 empty empty empty 0 -9 0 10 -262144
-1 -1 0 1;
#X msg 28 42 5;
#N canvas 1095 510 598 403 audio 0;
#X obj 272 16 r rosc;
#X floatatom 111 170 5 0 0 0 - - -, f 5;
#X msg 50 193 \$1 100;
#X obj 50 223 line~;
#N canvas 49 119 450 300 fm 0;
#X obj 113 192 osc~;
#X obj 114 144 +~;
#X obj 114 106 *~;
#X obj 114 66 osc~;
#X obj 112 14 inlet~;
#X obj 174 13 inlet~;
#X obj 235 14 inlet~;
#X obj 111 229 outlet~;
#X connect 0 0 7 0;
#X connect 1 0 0 0;
#X connect 2 0 1 0;
#X connect 3 0 2 0;
#X connect 4 0 3 0;
#X connect 5 0 2 1;
#X connect 6 0 1 1;
#X restore 116 337 pd fm;
#X obj 214 258 sig~;
#X floatatom 232 175 5 0 0 0 - - -, f 5;
#X msg 171 198 \$1 100;
#X obj 171 228 line~;
#N canvas 49 119 450 300 fm 0;
#X obj 113 192 osc~;
#X obj 114 144 +~;
#X obj 114 106 *~;
#X obj 114 66 osc~;
#X obj 112 14 inlet~;
#X obj 174 13 inlet~;
#X obj 235 14 inlet~;
#X obj 111 229 outlet~;
#X connect 0 0 7 0;
#X connect 1 0 0 0;
#X connect 2 0 1 0;
#X connect 3 0 2 0;
#X connect 4 0 3 0;
#X connect 5 0 2 1;
#X connect 6 0 1 1;
#X restore 183 338 pd fm;
#X obj 347 288 sig~;
#X floatatom 239 222 5 0 0 0 - - -, f 5;
#X obj 353 257 * 2;
#X floatatom 378 170 5 0 0 0 - - -, f 5;
#X msg 317 193 \$1 100;
#X obj 317 223 line~;
#X floatatom 499 175 5 0 0 0 - - -, f 5;
#X msg 438 198 \$1 100;
#X obj 438 228 line~;
#X obj 124 370 outlet~;
#X obj 437 167 * 1000;
#X obj 170 167 * 1000;
#X obj 47 171 * 1000;
#X obj 314 171 * 1000;
#X obj 272 42 route list;
#X obj 272 65 route world;
#X obj 272 88 route sn1 sn2 sn3 sn4;
#X obj 79 121 route velocity;
#X obj 79 144 route magnitude;
#X obj 185 120 route velocity;
#X obj 185 143 route magnitude;
#X obj 286 121 route velocity;
#X obj 286 144 route magnitude;
#X obj 390 119 route velocity;
#X obj 390 142 route magnitude;
#X connect 0 0 24 0;
#X connect 2 0 3 0;
#X connect 3 0 4 1;
#X connect 4 0 19 0;
#X connect 5 0 4 2;
#X connect 7 0 8 0;
#X connect 8 0 4 0;
#X connect 9 0 19 0;
#X connect 10 0 9 2;
#X connect 11 0 12 0;
#X connect 11 0 5 0;
#X connect 12 0 10 0;
#X connect 14 0 15 0;
#X connect 15 0 9 1;
#X connect 17 0 18 0;
#X connect 18 0 9 0;
#X connect 20 0 16 0;
#X connect 20 0 17 0;
#X connect 21 0 6 0;
#X connect 21 0 7 0;
#X connect 22 0 1 0;
#X connect 22 0 2 0;
#X connect 23 0 13 0;
#X connect 23 0 14 0;
#X connect 24 0 25 0;
#X connect 25 0 26 0;
#X connect 26 0 27 0;
#X connect 26 1 29 0;
#X connect 26 2 31 0;
#X connect 26 3 33 0;
#X connect 27 0 28 0;
#X connect 28 0 22 0;
#X connect 29 0 30 0;
#X connect 30 0 21 0;
#X connect 31 0 32 0;
#X connect 32 0 23 0;
#X connect 33 0 34 0;
#X connect 34 0 20 0;
#X restore 346 24 pd audio;
#X obj 432 11 inlet;
#X obj 433 43 * 30;
#X obj 60 107 * 0.1;
#X obj 211 212 oscformat /world/hinge/create;
#X msg 190 186 list hinge\$1\$2 sn\$1 sn\$2 0 \$3 0 1 0 0;
#X msg 190 256 list /world/hinge\$1\$2/response spring 1 0.1;
#X msg 190 278 list /world/hinge\$1\$2/force/magnitude/get 100;
#X msg 151 303 list /world/sn\$1/velocity/magnitude/get 100;
#X obj 151 500 t l l;
#X msg 180 522 set \$1;
#X obj 151 544 list split 1;
#X obj 151 581 oscformat;
#X obj 151 604 s osc;
#X obj 211 235 s osc;
#X msg 75 398 list /world/prism/create sn\$1 0 \$2 0;
#X msg 334 400 list /world/sn\$1/mass 0.1;
#X msg 53 424 list /world/sn\$1/size 0.4 0.1 0.01;
#X msg 57 447 list /world/sn\$1/color 0.5 0.8 0.5;
#X msg 20 467 list /world/hinge/create hinge\$1world sn0 world 0 0
0 1 0 0;
#X connect 0 0 12 0;
#X connect 1 0 3 0;
#X connect 2 0 4 0;
#X connect 3 0 2 0;
#X connect 3 0 5 0;
#X connect 3 1 16 0;
#X connect 4 1 30 0;
#X connect 4 1 29 0;
#X connect 4 1 31 0;
#X connect 4 2 28 0;
#X connect 5 1 6 0;
#X connect 5 1 7 0;
#X connect 5 1 21 0;
#X connect 6 0 7 1;
#X connect 7 0 18 0;
#X connect 7 0 19 0;
#X connect 7 0 20 0;
#X connect 9 0 8 0;
#X connect 9 0 8 1;
#X connect 10 0 9 1;
#X connect 11 0 10 0;
#X connect 12 0 1 0;
#X connect 12 0 32 0;
#X connect 13 0 9 0;
#X connect 14 0 15 0;
#X connect 15 0 11 0;
#X connect 16 0 2 1;
#X connect 16 0 7 2;
#X connect 17 0 27 0;
#X connect 18 0 17 0;
#X connect 19 0 22 0;
#X connect 20 0 22 0;
#X connect 21 0 22 0;
#X connect 22 0 24 0;
#X connect 22 1 23 0;
#X connect 23 0 25 0;
#X connect 24 1 25 0;
#X connect 25 0 26 0;
#X connect 28 0 22 0;
#X connect 29 0 22 0;
#X connect 30 0 22 0;
#X connect 31 0 22 0;
#X connect 32 0 22 0;
#X restore 584 284 pd snake;
#X obj 584 261 bng 15 250 50 0 empty empty empty 17 7 0 10 -262144
-1 -1;
#X text 581 240 The Snake;
#X obj 635 260 tgl 15 0 empty empty empty 17 7 0 10 -262144 -1 -1 0
1;
#N canvas 290 158 497 311 meshtest 0;
#X obj 22 265 s osc;
#X obj 70 221 oscformat /world/test/grab;
#X msg 258 221 0 0 0;
#X obj 258 242 oscformat /world/test/velocity;
#X obj 22 31 oscformat /world/mesh/create;
#X msg 36 55 0.1;
#X obj 36 75 oscformat /world/test/size;
#X msg 47 103 0.2 0.2 0.2;
#X obj 47 126 oscformat /world/test/position;
#X msg 70 151 0.1;
#X obj 70 172 oscformat /world/test/mass;
#X obj 71 203 bng 15 250 50 0 empty empty empty 17 7 0 10 -262144 -1
-1;
#X msg 22 10 list test ../test/cylinder.3ds 0 0 0;
#X obj 22 -12 inlet;
#X connect 1 0 0 0;
#X connect 2 0 3 0;
#X connect 3 0 0 0;
#X connect 4 0 0 0;
#X connect 5 0 6 0;
#X connect 6 0 0 0;
#X connect 7 0 8 0;
#X connect 8 0 0 0;
#X connect 9 0 10 0;
#X connect 10 0 0 0;
#X connect 11 0 1 0;
#X connect 12 0 4 0;
#X connect 13 0 12 0;
#X restore 16 506 pd meshtest;
#N canvas 176 184 917 249 texturetest 0;
#X obj 17 44 t b b;
#X obj 17 125 oscformat /world/fixed/create t1c t1 world;
#X obj 17 98 oscformat /world/t1/size 1 0.3 0.01;
#X obj 17 17 inlet;
#X obj 42 73 oscformat /world/prism/create t1 0 -0.3 -0.2;
#X obj 307 44 t b b;
#X obj 307 125 oscformat /world/fixed/create t2c t2 world;
#X obj 307 98 oscformat /world/t2/size 1 0.3 0.01;
#X obj 332 73 oscformat /world/prism/create t2 0 0 -0.2;
#X obj 587 46 t b b;
#X obj 587 100 oscformat /world/t3/size 1 0.3 0.01;
#X obj 587 127 oscformat /world/fixed/create t3c t3 world;
#X obj 612 75 oscformat /world/prism/create t3 0 0.3 -0.2;
#X obj 17 186 s osc;
#X obj 307 184 s osc;
#X obj 587 184 s osc;
#X obj 17 154 oscformat /world/t1/texture/image ../textures/marble.tga
;
#X obj 587 156 oscformat /world/t3/texture/image ../textures/bumpy.tga
;
#X obj 307 154 oscformat /world/t2/texture/image ../textures/grainy.tga
;
#X connect 0 0 2 0;
#X connect 0 0 1 0;
#X connect 0 0 16 0;
#X connect 0 1 4 0;
#X connect 1 0 13 0;
#X connect 2 0 13 0;
#X connect 3 0 0 0;
#X connect 3 0 5 0;
#X connect 3 0 9 0;
#X connect 4 0 13 0;
#X connect 5 0 7 0;
#X connect 5 0 6 0;
#X connect 5 0 18 0;
#X connect 5 1 8 0;
#X connect 6 0 14 0;
#X connect 7 0 14 0;
#X connect 8 0 14 0;
#X connect 9 0 10 0;
#X connect 9 0 11 0;
#X connect 9 0 17 0;
#X connect 9 1 12 0;
#X connect 10 0 15 0;
#X connect 11 0 15 0;
#X connect 12 0 15 0;
#X connect 16 0 13 0;
#X connect 17 0 15 0;
#X connect 18 0 14 0;
#X restore 89 507 pd texturetest;
#X obj 89 486 bng 15 250 50 0 empty empty empty 17 7 0 10 -262144 -1
-1;
#N canvas 180 273 313 351 cuberoom 0;
#X obj 20 10 inlet;
#X obj 20 34 bng 15 250 50 0 empty empty empty 17 7 0 10 -262144 -1
-1;
#N canvas 208 89 538 814 createroom 0;
#X obj 34 18 inlet;
#X obj 34 130 / 2;
#X obj 34 165 -;
#X floatatom 34 195 5 0 0 0 - - -, f 5;
#X obj 70 130 / 2;
#X obj 70 165 -;
#X floatatom 70 195 5 0 0 0 - - -, f 5;
#X floatatom 178 195 5 0 0 0 - - -, f 5;
#X obj 34 98 unpack 0 0 0 0 0;
#X obj 106 130 / 2;
#X obj 106 165 +;
#X floatatom 106 195 5 0 0 0 - - -, f 5;
#X obj 142 129 / 2;
#X obj 142 165 +;
#X floatatom 142 195 5 0 0 0 - - -, f 5;
#X obj 178 128 / 2;
#X obj 10 98 bng 15 250 50 0 empty empty empty 17 7 0 10 -262144 -1
-1;
#X obj 70 219 * -1;
#X obj 34 219 * -1;
#X obj 10 281 t l l l;
#X obj 34 46 bng 15 250 50 0 empty empty empty 17 7 0 10 -262144 -1
-1;
#X text 57 43 bang to create box;
#X obj 10 257 pack 0 0 0 0 0 0 0 0 0 0 0 0 0 0;
#X obj 187 232 +;
#X floatatom 212 250 5 0 0 0 - - -, f 5;
#X obj 192 212 * 1;
#X msg 33 70 2 1 1 0.03 0.03;
#X obj 299 767 s osc;
#X msg 299 613 0.7 0.9 0.15;
#X obj 280 613 bng 15 250 50 0 empty empty empty 17 7 0 10 -262144
-1 -1;
#X msg 47 303 list leftside 0 \$7 \$9;
#X msg 47 324 list rightside 0 \$6 \$9;
#X msg 47 347 list backside \$4 0 \$9;
#X msg 47 368 list frontside \$3 0 \$9;
#X msg 47 389 list bottom 0 0 \$13;
#X msg 47 410 list top 0 0 \$14;
#X obj 47 435 oscformat /world/prism/create;
#X obj 233 435 s osc;
#X obj 159 568 s osc;
#X msg 28 459 list fix1 leftside world;
#X msg 28 480 list fix2 rightside world;
#X msg 28 501 list fix3 backside world;
#X msg 28 522 list fix4 frontside world;
#X msg 28 544 list boxhinge bottom world;
#X msg 28 567 list fix5 top world;
#X obj 28 591 oscformat /world/fixed/create;
#X obj 88 743 s osc;
#X msg 10 613 \$2 \$5 \$12;
#X msg 10 634 \$2 \$12 \$8;
#X msg 10 655 \$2 \$12 \$8;
#X msg 10 676 \$12 \$5 \$8;
#X msg 10 697 \$12 \$5 \$8;
#X msg 10 720 \$2 \$5 \$12;
#X obj 88 613 oscformat /world/bottom/size;
#X obj 88 634 oscformat /world/leftside/size;
#X obj 88 655 oscformat /world/rightside/size;
#X obj 88 676 oscformat /world/backside/size;
#X obj 88 697 oscformat /world/frontside/size;
#X obj 88 720 oscformat /world/top/size;
#X obj 299 638 oscformat /world/bottom/color;
#X obj 299 659 oscformat /world/leftside/color;
#X obj 299 680 oscformat /world/rightside/color;
#X obj 299 701 oscformat /world/backside/color;
#X obj 299 722 oscformat /world/frontside/color;
#X obj 299 745 oscformat /world/top/color;
#X connect 0 0 20 0;
#X connect 1 0 2 0;
#X connect 2 0 3 0;
#X connect 3 0 18 0;
#X connect 3 0 22 2;
#X connect 4 0 5 0;
#X connect 5 0 6 0;
#X connect 6 0 17 0;
#X connect 6 0 22 5;
#X connect 7 0 22 12;
#X connect 7 0 25 0;
#X connect 8 0 1 0;
#X connect 8 0 22 1;
#X connect 8 1 4 0;
#X connect 8 1 22 4;
#X connect 8 2 9 0;
#X connect 8 2 22 7;
#X connect 8 2 23 0;
#X connect 8 3 12 0;
#X connect 8 3 22 9;
#X connect 8 4 15 0;
#X connect 8 4 22 11;
#X connect 9 0 10 0;
#X connect 10 0 11 0;
#X connect 11 0 22 8;
#X connect 12 0 13 0;
#X connect 13 0 14 0;
#X connect 14 0 22 10;
#X connect 15 0 13 1;
#X connect 15 0 10 1;
#X connect 15 0 5 1;
#X connect 15 0 2 1;
#X connect 15 0 7 0;
#X connect 16 0 22 0;
#X connect 17 0 22 6;
#X connect 18 0 22 3;
#X connect 19 0 47 0;
#X connect 19 0 48 0;
#X connect 19 0 49 0;
#X connect 19 0 50 0;
#X connect 19 0 51 0;
#X connect 19 0 52 0;
#X connect 19 1 39 0;
#X connect 19 1 40 0;
#X connect 19 1 41 0;
#X connect 19 1 42 0;
#X connect 19 1 43 0;
#X connect 19 1 44 0;
#X connect 19 1 29 0;
#X connect 19 2 32 0;
#X connect 19 2 34 0;
#X connect 19 2 35 0;
#X connect 19 2 30 0;
#X connect 19 2 31 0;
#X connect 19 2 33 0;
#X connect 20 0 26 0;
#X connect 22 0 19 0;
#X connect 23 0 22 13;
#X connect 23 0 24 0;
#X connect 25 0 23 1;
#X connect 26 0 8 0;
#X connect 26 0 16 0;
#X connect 28 0 60 0;
#X connect 28 0 61 0;
#X connect 28 0 62 0;
#X connect 28 0 63 0;
#X connect 28 0 64 0;
#X connect 28 0 59 0;
#X connect 29 0 28 0;
#X connect 30 0 36 0;
#X connect 31 0 36 0;
#X connect 32 0 36 0;
#X connect 33 0 36 0;
#X connect 34 0 36 0;
#X connect 35 0 36 0;
#X connect 36 0 37 0;
#X connect 39 0 45 0;
#X connect 40 0 45 0;
#X connect 41 0 45 0;
#X connect 42 0 45 0;
#X connect 43 0 45 0;
#X connect 44 0 45 0;
#X connect 45 0 38 0;
#X connect 47 0 53 0;
#X connect 48 0 54 0;
#X connect 49 0 55 0;
#X connect 50 0 56 0;
#X connect 51 0 57 0;
#X connect 52 0 58 0;
#X connect 53 0 46 0;
#X connect 54 0 46 0;
#X connect 55 0 46 0;
#X connect 56 0 46 0;
#X connect 57 0 46 0;
#X connect 58 0 46 0;
#X connect 59 0 27 0;
#X connect 60 0 27 0;
#X connect 61 0 27 0;
#X connect 62 0 27 0;
#X connect 63 0 27 0;
#X connect 64 0 27 0;
#X restore 20 57 pd createroom;
#N canvas 73 179 530 320 xbyxbyx 0;
#X obj 65 147 until;
#X obj 65 175 f;
#X obj 96 177 + 1;
#X obj 140 177 sel 0;
#X obj 96 198 mod 10;
#X obj 185 148 until;
#X obj 185 176 f;
#X obj 216 178 + 1;
#X obj 260 178 sel 0;
#X obj 216 199 mod 10;
#X msg 159 148 0;
#X obj 155 89 t b b;
#X obj 33 86 t b b;
#X msg 31 143 0;
#X obj 51 200 t f f;
#X obj 185 121 f;
#X obj 63 120 f;
#X obj 33 28 t b l;
#X obj 33 5 inlet;
#X obj 65 276 outlet;
#X obj 68 57 unpack 0 0 0;
#X obj 330 150 until;
#X obj 330 178 f;
#X obj 361 180 + 1;
#X obj 405 180 sel 0;
#X obj 361 201 mod 10;
#X msg 304 150 0;
#X obj 300 91 t b b;
#X obj 330 123 f;
#X obj 183 223 t f f;
#X obj 66 252 pack 0 0 0;
#X connect 0 0 1 0;
#X connect 1 0 2 0;
#X connect 1 0 14 0;
#X connect 2 0 4 0;
#X connect 3 0 0 1;
#X connect 4 0 1 1;
#X connect 4 0 3 0;
#X connect 5 0 6 0;
#X connect 6 0 7 0;
#X connect 6 0 29 0;
#X connect 7 0 9 0;
#X connect 8 0 5 1;
#X connect 9 0 6 1;
#X connect 9 0 8 0;
#X connect 10 0 6 1;
#X connect 11 0 15 0;
#X connect 11 1 10 0;
#X connect 12 0 16 0;
#X connect 12 1 13 0;
#X connect 13 0 1 1;
#X connect 14 0 11 0;
#X connect 15 0 5 0;
#X connect 16 0 0 0;
#X connect 17 0 12 0;
#X connect 17 1 20 0;
#X connect 18 0 17 0;
#X connect 20 0 16 1;
#X connect 20 1 15 1;
#X connect 20 2 28 1;
#X connect 21 0 22 0;
#X connect 22 0 23 0;
#X connect 22 0 30 0;
#X connect 23 0 25 0;
#X connect 24 0 21 1;
#X connect 25 0 22 1;
#X connect 25 0 24 0;
#X connect 26 0 22 1;
#X connect 27 0 28 0;
#X connect 27 1 26 0;
#X connect 28 0 21 0;
#X connect 29 0 27 0;
#X connect 29 1 30 1;
#X connect 30 0 19 0;
#X restore 21 119 pd xbyxbyx;
#X obj 55 147 unpack 0 0 0;
#X obj 35 256 pack 0 0 0 0 0 0;
#X obj 217 199 + 0.1;
#X obj 179 199 + 0.1;
#X obj 141 199 + 0.1;
#X obj 103 199 + 0.1;
#X obj 67 199 + 0.1;
#X obj 29 199 + 0.1;
#X obj 141 175 / 25;
#X obj 179 175 / 25;
#X obj 217 175 / 25;
#X msg 21 90 10 10 10;
#X obj 22 298 oscformat /world/prism/create;
#X msg 22 276 list cube_\$3_\$2_\$1 \$6 \$5 \$4;
#X obj 22 321 s osc;
#X connect 0 0 1 0;
#X connect 1 0 2 0;
#X connect 3 0 4 0;
#X connect 4 0 11 0;
#X connect 4 0 12 0;
#X connect 4 1 10 0;
#X connect 4 1 13 0;
#X connect 4 2 9 0;
#X connect 4 2 14 0;
#X connect 5 0 17 0;
#X connect 6 0 5 5;
#X connect 7 0 5 4;
#X connect 8 0 5 3;
#X connect 9 0 5 2;
#X connect 10 0 5 1;
#X connect 11 0 5 0;
#X connect 12 0 8 0;
#X connect 13 0 7 0;
#X connect 14 0 6 0;
#X connect 15 0 3 0;
#X connect 16 0 18 0;
#X connect 17 0 16 0;
#X restore 181 508 pd cuberoom;
#X floatatom 135 405 5 0 0 0 - - -, f 5;
#X obj 481 139 bng 15 250 50 0 empty empty empty 17 7 0 10 -262144
-1 -1;
#X obj 456 71 / -100;
#X msg 456 93 0 0 \$1;
#X obj 456 114 oscformat /world/gravity;
#X obj 367 557 s osc;
#X floatatom 367 511 5 0 0 0 - - -, f 5;
#X text 115 39 MarbleBox;
#X text 407 511 Set the maximum stiffness if necessary;
#X obj 345 512 bng 15 250 50 0 empty empty empty 17 7 0 10 -262144
-1 -1;
#X text 173 405 freq;
#X obj 16 486 bng 15 250 50 0 empty empty empty 17 7 0 10 -262144 -1
-1;
#X obj 367 534 oscformat /world/stiffness;
#X connect 0 0 1 0;
#X connect 2 0 11 0;
#X connect 3 0 2 0;
#X connect 6 0 66 0;
#X connect 9 0 8 0;
#X connect 13 0 12 0;
#X connect 15 0 14 0;
#X connect 16 0 18 0;
#X connect 19 0 11 1;
#X connect 20 0 23 0;
#X connect 20 1 22 0;
#X connect 21 0 20 0;
#X connect 37 0 36 0;
#X connect 40 0 39 0;
#X connect 43 0 44 0;
#X connect 44 0 16 0;
#X connect 53 0 52 0;
#X connect 54 0 52 0;
#X connect 55 0 52 0;
#X connect 57 0 56 0;
#X connect 59 0 56 1;
#X connect 62 0 61 0;
#X connect 64 0 18 1;
#X connect 65 0 0 0;
#X connect 66 0 67 0;
#X connect 67 0 68 0;
#X connect 68 0 1 0;
#X connect 70 0 76 0;
#X connect 73 0 70 0;
#X connect 75 0 60 0;
#X connect 76 0 69 0;
