#N canvas 615 342 262 193 10;
#N canvas 35 194 609 313 wall 0;
#X obj 32 155 sendOSC;
#X obj 295 32 dumpOSC 7775;
#X msg 51 127 connect localhost 7774;
#X msg 32 74 send /world/cursor/position/get 1;
#X obj 297 64 route /world/cursor/position;
#X obj 298 94 unpack 0 0 0;
#X floatatom 281 127 5 0 0 0 - - -;
#X floatatom 329 128 5 0 0 0 - - -;
#X floatatom 378 129 5 0 0 0 - - -;
#X msg 50 249 send /world/cursor/force 0 0 \$1;
#X floatatom 296 241 5 0 0 0 - - -;
#X obj 296 191 * -50;
#X obj 527 84 realtime;
#X obj 532 60 t b b;
#X floatatom 527 112 5 0 0 0 - - -;
#X floatatom 233 159 5 0 0 0 - - -;
#X obj 30 17 loadbang;
#X obj 35 47 t b b;
#X obj 233 105 inlet;
#X obj 296 266 outlet;
#X obj 527 139 outlet;
#X obj 405 157 outlet;
#X obj 93 18 inlet;
#X obj 233 131 * -1;
#X obj 348 189 < 0;
#X obj 296 216 *;
#X obj 323 154 t f f;
#X floatatom 347 212 5 0 0 0 - - -;
#X connect 1 0 4 0;
#X connect 1 0 13 0;
#X connect 2 0 0 0;
#X connect 3 0 0 0;
#X connect 4 0 5 0;
#X connect 5 0 6 0;
#X connect 5 1 7 0;
#X connect 5 2 8 0;
#X connect 8 0 26 0;
#X connect 9 0 0 0;
#X connect 10 0 19 0;
#X connect 11 0 25 0;
#X connect 12 0 14 0;
#X connect 13 0 12 1;
#X connect 13 1 12 0;
#X connect 14 0 20 0;
#X connect 15 0 11 1;
#X connect 16 0 17 0;
#X connect 17 0 3 0;
#X connect 17 1 2 0;
#X connect 18 0 23 0;
#X connect 22 0 17 0;
#X connect 23 0 15 0;
#X connect 24 0 25 1;
#X connect 24 0 27 0;
#X connect 25 0 10 0;
#X connect 25 0 9 0;
#X connect 26 0 11 0;
#X connect 26 1 24 0;
#X restore 47 63 pd wall;
#X floatatom 93 33 5 1 200 0 - - -;
#X floatatom 17 100 5 0 0 0 - - -;
#X floatatom 84 100 5 0 0 0 - - -;
#X floatatom 145 100 5 0 0 0 - - -;
#X text 144 116 position;
#X text 81 118 force;
#X text 15 116 timing;
#X text 90 16 stiffness;
#X obj 47 34 bng 15 250 50 0 empty empty empty 17 7 0 10 -262144 -1
-1;
#X text 43 16 init;
#X text 24 147 Z-axis virtual wall for DIMPLE.;
#X text 24 165 Stephen Sinclair 2009;
#X connect 0 0 3 0;
#X connect 0 1 4 0;
#X connect 0 2 2 0;
#X connect 1 0 0 1;
#X connect 9 0 0 0;
