#N canvas 521 402 307 240 10;
#N canvas 67 194 565 567 wall 0;
#X msg 80 193 connect localhost 7774;
#X msg 27 290 send /world/cursor/position/get 1;
#X obj 292 280 route /world/cursor/position;
#X obj 293 310 unpack 0 0 0;
#X floatatom 276 343 5 0 0 0 - - -, f 5;
#X floatatom 324 344 5 0 0 0 - - -, f 5;
#X floatatom 373 345 5 0 0 0 - - -, f 5;
#X floatatom 291 457 5 0 0 0 - - -, f 5;
#X obj 291 407 * -50;
#X obj 399 193 realtime;
#X obj 404 169 t b b;
#X floatatom 399 221 5 0 0 0 - - -, f 5;
#X floatatom 228 375 5 0 0 0 - - -, f 5;
#X obj 21 132 loadbang;
#X obj 26 162 t b b;
#X obj 228 321 inlet;
#X obj 291 482 outlet;
#X obj 399 248 outlet;
#X obj 400 373 outlet;
#X obj 84 133 inlet;
#X obj 228 347 * -1;
#X obj 343 405 < 0;
#X obj 291 432 *;
#X obj 318 370 t f f;
#X floatatom 342 428 5 0 0 0 - - -, f 5;
#X obj 404 46 loadbang;
#X msg 404 71 listen 7778;
#X text 401 22 Receive on port 7778;
#X obj 404 96 netreceive -u -b;
#X obj 404 121 oscparse;
#X obj 292 179 route list;
#X obj 292 202 route world;
#X obj 292 225 route cursor;
#X obj 292 248 route position;
#X msg 38 220 1;
#X obj 38 243 oscformat /world/cursor/position/get 1;
#X obj 27 371 list prepend send;
#X obj 27 394 list trim;
#X obj 158 419 netsend -u -b;
#X obj 200 520 oscformat /world/cursor/force;
#X msg 200 497 0 0 \$1;
#X connect 0 0 38 0;
#X connect 1 0 36 0;
#X connect 2 0 3 0;
#X connect 3 0 4 0;
#X connect 3 1 5 0;
#X connect 3 2 6 0;
#X connect 6 0 23 0;
#X connect 6 0 18 0;
#X connect 7 0 16 0;
#X connect 8 0 22 0;
#X connect 9 0 11 0;
#X connect 10 0 9 1;
#X connect 10 1 9 0;
#X connect 11 0 17 0;
#X connect 12 0 8 1;
#X connect 13 0 14 0;
#X connect 14 0 1 0;
#X connect 14 1 0 0;
#X connect 15 0 20 0;
#X connect 19 0 14 0;
#X connect 20 0 12 0;
#X connect 21 0 22 1;
#X connect 21 0 24 0;
#X connect 22 0 7 0;
#X connect 22 0 40 0;
#X connect 23 0 8 0;
#X connect 23 1 21 0;
#X connect 25 0 26 0;
#X connect 26 0 28 0;
#X connect 28 0 29 0;
#X connect 29 0 30 0;
#X connect 29 0 10 0;
#X connect 30 0 31 0;
#X connect 31 0 32 0;
#X connect 32 0 33 0;
#X connect 33 0 2 0;
#X connect 34 0 35 0;
#X connect 36 0 37 0;
#X connect 37 0 38 0;
#X connect 39 0 36 0;
#X connect 40 0 39 0;
#X restore 74 93 pd wall;
#X floatatom 120 63 5 1 200 0 - - -, f 5;
#X floatatom 44 130 5 0 0 0 - - -, f 5;
#X floatatom 111 130 5 0 0 0 - - -, f 5;
#X floatatom 172 130 5 0 0 0 - - -, f 5;
#X text 171 146 position;
#X text 108 148 force;
#X text 42 146 timing;
#X text 117 46 stiffness;
#X obj 74 64 bng 15 250 50 0 empty empty empty 17 7 0 10 -262144 -1
-1;
#X text 70 46 init;
#X text 51 177 Z-axis virtual wall for DIMPLE.;
#X text 51 195 Stephen Sinclair 2009;
#X text 44 24 Click "init" after starting DIMPLE!;
#X connect 0 0 3 0;
#X connect 0 1 2 0;
#X connect 0 2 4 0;
#X connect 1 0 0 1;
#X connect 9 0 0 0;
