#N canvas 345 66 825 490 10;
#X obj 16 225 sendOSC;
#X obj 16 32 tgl 15 0 empty empty empty 17 7 0 10 -262144 -1 -1 1 1
;
#X msg 29 202 disconnect;
#X obj 16 98 tgl 15 0 empty empty empty 17 7 0 10 -262144 -1 -1 1 1
;
#X msg 16 119 send /graphics/enable \$1;
#X msg 16 52 send /haptics/enable \$1;
#X msg 16 173 connect 132.206.14.212 7770;
#X msg 16 152 connect localhost 7770;
#X obj 453 113 * 100;
#X obj 452 206 osc~;
#X obj 487 233 *~;
#X obj 486 298 dac~;
#X obj 599 62 print;
#X obj 500 62 OSCroute /force;
#X obj 500 88 OSCroute /magnitude;
#X obj 453 137 + 100;
#X obj 500 35 dumpOSC 7771;
#X msg 16 10 1;
#X obj 453 183 vline~;
#X msg 453 159 \$1 100;
#X obj 517 143 bng 15 250 50 0 empty empty empty 0 -6 0 8 -262144 -1
-1;
#X msg 542 142 stop;
#X obj 517 190 bng 15 250 50 0 empty empty empty 0 -6 0 8 -262144 -1
-1;
#X obj 517 118 t b b;
#X obj 517 166 delay 10;
#X obj 487 264 hip~ 5;
#X msg 517 213 0 100;
#X obj 115 213 bng 15 250 50 0 empty empty empty 0 -6 0 8 -262144 -1
-1;
#X msg 269 208 send /world/clear;
#X msg 271 182 send /world/gravity 0;
#X msg 115 325 send /object/two/size 0.11 0.11 0.02;
#X msg 115 302 send /object/prism/create two 0 -0.1 0;
#X msg 115 258 send /object/sphere/create one 0 0.1 0;
#X msg 115 280 send /object/one/radius 0.04;
#X obj 115 233 t b b b b b;
#X msg 69 415 send /object/one/destroy;
#X msg 69 393 send /object/two/destroy;
#X msg 270 382 send /constraint/ball/create c2 one two 0 0 0;
#X msg 270 404 send /constraint/c2/destroy;
#X msg 115 349 send /object/one/force 0 -4 0.2;
#X connect 1 0 5 0;
#X connect 2 0 0 0;
#X connect 3 0 4 0;
#X connect 4 0 0 0;
#X connect 5 0 0 0;
#X connect 6 0 0 0;
#X connect 7 0 0 0;
#X connect 8 0 15 0;
#X connect 9 0 10 0;
#X connect 10 0 25 0;
#X connect 13 0 14 0;
#X connect 14 0 10 1;
#X connect 14 0 8 0;
#X connect 15 0 19 0;
#X connect 15 0 23 0;
#X connect 16 0 13 0;
#X connect 17 0 1 0;
#X connect 17 0 3 0;
#X connect 18 0 9 0;
#X connect 19 0 18 0;
#X connect 20 0 24 0;
#X connect 21 0 24 0;
#X connect 22 0 26 0;
#X connect 23 0 20 0;
#X connect 23 1 21 0;
#X connect 24 0 22 0;
#X connect 25 0 11 1;
#X connect 25 0 11 0;
#X connect 26 0 18 0;
#X connect 27 0 34 0;
#X connect 28 0 0 0;
#X connect 29 0 0 0;
#X connect 30 0 0 0;
#X connect 31 0 0 0;
#X connect 32 0 0 0;
#X connect 33 0 0 0;
#X connect 34 0 39 0;
#X connect 34 1 30 0;
#X connect 34 2 31 0;
#X connect 34 3 33 0;
#X connect 34 4 32 0;
#X connect 35 0 0 0;
#X connect 36 0 0 0;
#X connect 37 0 0 0;
#X connect 38 0 0 0;
#X connect 39 0 0 0;
