#N canvas 554 71 698 448 10;
#X msg 134 94 send /world/clear;
#X obj 134 117 s osc;
#X text 133 50 world;
#X obj 515 135 bng 15 250 50 0 empty empty empty 0 -6 0 8 -262144 -1
-1;
#X floatatom 350 121 5 0 0 0 - - -;
#X text 351 134 move to create marbles;
#X text 347 17 MarbleBox;
#X floatatom 201 28 5 0 500 0 - - -;
#X msg 133 70 send /world/gravity \$1;
#X obj 38 257 r rosc;
#X floatatom 38 367 10 0 0 0 - - -;
#X obj 38 279 OSCroute /constraint;
#X obj 38 301 OSCroute /c1;
#X obj 38 323 OSCroute /force;
#X obj 38 345 OSCroute /magnitude;
#X obj 112 390 osc~;
#X obj 118 411 dac~;
#X floatatom 153 392 5 0 0 0 - - -;
#X obj 113 366 * -1000;
#X obj 201 50 / -100;
#N canvas 5 46 450 300 (subpatch) 0;
#X array accel 1000 float 0;
#X coords 0 1 1000 0 200 140 1;
#X restore 402 290 graph;
#N canvas 5 46 857 621 createbox 0;
#X obj 34 51 bng 15 250 50 0 empty empty empty 17 7 0 10 -262144 -1
-1;
#X msg 71 214 send /object/prism/create bottom 0 0 0.005;
#X msg 34 393 send /object/bottom/size 0.3 0.3 0.01;
#X msg 71 130 send /object/prism/create leftside 0 -0.145 0.06;
#X msg 71 151 send /object/prism/create rightside 0 0.145 0.06;
#X msg 71 172 send /object/prism/create backside -0.145 0 0.06;
#X msg 34 414 send /object/leftside/size 0.3 0.01 0.1;
#X msg 34 435 send /object/rightside/size 0.3 0.01 0.1;
#X obj 34 75 t b b b;
#X obj 52 369 s osc;
#X obj 71 237 s osc;
#X obj 34 498 s osc;
#X msg 52 262 send /constraint/fixed/create fix1 leftside world;
#X msg 52 283 send /constraint/fixed/create fix2 rightside world;
#X msg 52 304 send /constraint/fixed/create fix3 backside world;
#X msg 52 325 send /constraint/fixed/create fix4 frontside world;
#X msg 34 456 send /object/backside/size 0.01 0.28 0.1;
#X msg 34 477 send /object/frontside/size 0.01 0.28 0.02;
#X msg 71 193 send /object/prism/create frontside 0.145 0 0.02;
#X text 57 48 bang to create box;
#X msg 52 347 send /constraint/fixed/create boxhinge bottom world;
#X obj 71 100 bng 15 250 50 0 empty empty empty 17 7 0 10 -262144 -1
-1;
#X obj 52 237 bng 15 250 50 0 empty empty empty 17 7 0 10 -262144 -1
-1;
#X obj 34 369 bng 15 250 50 0 empty empty empty 17 7 0 10 -262144 -1
-1;
#X obj 34 18 inlet;
#X connect 0 0 8 0;
#X connect 1 0 10 0;
#X connect 2 0 11 0;
#X connect 3 0 10 0;
#X connect 4 0 10 0;
#X connect 5 0 10 0;
#X connect 6 0 11 0;
#X connect 7 0 11 0;
#X connect 8 0 23 0;
#X connect 8 1 22 0;
#X connect 8 2 21 0;
#X connect 12 0 9 0;
#X connect 13 0 9 0;
#X connect 14 0 9 0;
#X connect 15 0 9 0;
#X connect 16 0 11 0;
#X connect 17 0 11 0;
#X connect 18 0 10 0;
#X connect 20 0 9 0;
#X connect 21 0 3 0;
#X connect 21 0 4 0;
#X connect 21 0 5 0;
#X connect 21 0 18 0;
#X connect 21 0 1 0;
#X connect 22 0 12 0;
#X connect 22 0 13 0;
#X connect 22 0 14 0;
#X connect 22 0 15 0;
#X connect 22 0 20 0;
#X connect 23 0 2 0;
#X connect 23 0 6 0;
#X connect 23 0 7 0;
#X connect 23 0 16 0;
#X connect 23 0 17 0;
#X connect 24 0 0 0;
#X restore 350 76 pd createbox;
#X obj 350 48 bng 15 250 50 0 empty empty empty 17 7 0 10 -262144 -1
-1;
#X text 373 45 bang to create box;
#N canvas 560 316 480 345 createmarble 0;
#X obj 58 265 s osc;
#X floatatom 28 54 5 0 0 0 - - -;
#X obj 55 25 + 1;
#X obj 28 193 list prepend send;
#X obj 28 148 makesymbol /object/%ss/radius;
#X obj 28 218 list trim;
#X obj 28 100 t l l;
#X obj 28 171 pack s 0.02;
#X obj 29 26 f;
#X obj 248 215 list prepend send;
#X obj 248 237 list trim;
#X obj 248 191 pack s 0.02;
#X obj 248 168 makesymbol /object/%ss/mass;
#X obj 71 52 / 25;
#X obj 111 53 / 500;
#X obj 28 77 pack 0 0 0;
#X msg 58 124 send /object/sphere/create \$1s \$3 \$3 \$2;
#X obj 29 -3 inlet;
#X obj 88 -1 inlet;
#X obj 248 148 * 1;
#X msg 4 301 send /object/collide/get 1;
#X obj 4 29 bng 15 250 50 0 empty empty empty 17 7 0 10 -262144 -1
-1;
#X connect 1 0 15 0;
#X connect 2 0 8 1;
#X connect 3 0 5 0;
#X connect 4 0 7 0;
#X connect 5 0 0 0;
#X connect 6 0 4 0;
#X connect 6 1 16 0;
#X connect 6 1 19 0;
#X connect 7 0 3 0;
#X connect 8 0 2 0;
#X connect 8 0 1 0;
#X connect 8 0 13 0;
#X connect 8 0 14 0;
#X connect 9 0 10 0;
#X connect 10 0 0 0;
#X connect 11 0 9 0;
#X connect 12 0 11 0;
#X connect 13 0 15 1;
#X connect 14 0 15 2;
#X connect 15 0 6 0;
#X connect 16 0 0 0;
#X connect 17 0 8 0;
#X connect 17 0 21 0;
#X connect 18 0 8 1;
#X connect 19 0 12 0;
#X connect 20 0 0 0;
#X connect 21 0 20 0;
#X restore 515 158 pd createmarble;
#N canvas 5 46 450 300 forcestick 0;
#X obj 21 54 bng 15 250 50 0 empty empty empty 0 -6 0 8 -262144 -1
-1;
#X msg 21 143 send /object/stick/mass 2;
#X obj 21 217 s osc;
#X text 77 17 Force Stick;
#X obj 21 73 t b b b b b;
#X msg 21 96 send /object/prism/create stick 0 0 0.15;
#X msg 21 167 send /constraint/hinge/create c1 stick world 0 0 0 1
0 0;
#X msg 21 191 send /constraint/c1/response/spring 0.5 0.1;
#X msg 21 119 send /object/stick/size 0.2 0.02 0.3;
#X obj 22 15 inlet;
#X connect 0 0 4 0;
#X connect 1 0 2 0;
#X connect 4 0 7 0;
#X connect 4 1 6 0;
#X connect 4 2 1 0;
#X connect 4 3 8 0;
#X connect 4 4 5 0;
#X connect 5 0 2 0;
#X connect 6 0 2 0;
#X connect 7 0 2 0;
#X connect 8 0 2 0;
#X connect 9 0 0 0;
#X restore 349 242 pd forcestick;
#X obj 349 223 bng 15 250 50 0 empty empty empty 17 7 0 10 -262144
-1 -1;
#N canvas 5 46 450 300 connect 0;
#X obj 20 241 sendOSC;
#X obj 20 64 tgl 15 0 empty empty empty 17 7 0 10 -262144 -1 -1 0 1
;
#X msg 80 213 disconnect;
#X obj 20 114 tgl 15 0 empty empty empty 17 7 0 10 -262144 -1 -1 0
1;
#X msg 20 135 send /graphics/enable \$1;
#X msg 20 84 send /haptics/enable \$1;
#X msg 36 189 connect 132.206.14.212 7770;
#X msg 36 168 connect localhost 7770;
#X obj 27 213 r osc;
#X msg 20 42 1;
#X text 48 40 turn on graphics and haptics;
#X obj 21 1 inlet;
#X obj 21 22 bng 15 250 50 0 empty empty empty 17 7 0 10 -262144 -1
-1;
#X obj 278 104 dumpOSC 7771;
#X obj 278 127 s rosc;
#X text 277 86 Receive on port 7771;
#X msg 292 185 0;
#X obj 255 202 spigot 1;
#X obj 260 167 t b b;
#X connect 1 0 5 0;
#X connect 2 0 0 0;
#X connect 3 0 4 0;
#X connect 4 0 0 0;
#X connect 5 0 0 0;
#X connect 6 0 0 0;
#X connect 7 0 0 0;
#X connect 8 0 0 0;
#X connect 9 0 1 0;
#X connect 9 0 3 0;
#X connect 11 0 12 0;
#X connect 12 0 9 0;
#X connect 12 0 18 0;
#X connect 13 0 14 0;
#X connect 16 0 17 1;
#X connect 17 0 7 0;
#X connect 18 0 16 0;
#X connect 18 1 17 0;
#X restore 20 60 pd connect;
#X obj 20 39 bng 15 250 50 0 empty empty empty 17 7 0 10 -262144 -1
-1;
#X text 351 202 Force Stick;
#X text 18 18 Initialize;
#X obj 143 257 print;
#N canvas 289 164 335 381 smash 0;
#X obj 36 312 list prepend send;
#X obj 36 335 list trim;
#X obj 36 358 s osc;
#X msg 36 73 /object/sphere/create s1 0 0.1 0;
#X msg 36 93 /object/sphere/create s2 0 -0.1 0;
#X msg 22 140 /object/s1/force 0 -0.5 0;
#X msg 22 160 /object/s2/force 0 0.5 0;
#X obj 35 40 bng 15 250 50 0 empty empty empty 17 7 0 10 -262144 -1
-1;
#X obj 32 15 inlet;
#X msg 36 113 /object/sphere/create s3 0 0 0.1;
#X msg 22 180 /object/s3/force 0 0 -0.5;
#X msg 22 216 /object/s1/collide/get 1;
#X msg 22 236 /object/s2/collide/get 1;
#X msg 22 256 /object/s3/collide/get 1;
#X connect 0 0 1 0;
#X connect 1 0 2 0;
#X connect 3 0 0 0;
#X connect 4 0 0 0;
#X connect 5 0 0 0;
#X connect 6 0 0 0;
#X connect 7 0 3 0;
#X connect 7 0 4 0;
#X connect 7 0 5 0;
#X connect 7 0 6 0;
#X connect 7 0 9 0;
#X connect 7 0 10 0;
#X connect 7 0 11 0;
#X connect 7 0 12 0;
#X connect 8 0 7 0;
#X connect 9 0 0 0;
#X connect 10 0 0 0;
#X connect 11 0 0 0;
#X connect 12 0 0 0;
#X connect 13 0 0 0;
#X restore 110 188 pd smash;
#X obj 110 165 bng 15 250 50 0 empty empty empty 17 7 0 10 -262144
-1 -1;
#X obj 192 163 tgl 15 0 empty empty empty 17 7 0 10 -262144 -1 -1 1
1;
#X text 216 163 audio;
#N canvas 5 46 450 300 beepcollide 0;
#X obj 78 47 OSCroute /object;
#X obj 78 133 print collided;
#X obj 79 26 r rosc;
#X obj 26 272 dac~;
#X obj 68 202 *~;
#X obj 227 119 bang;
#X obj 31 11 inlet;
#X obj 31 229 *~;
#X obj 78 90 OSCroute /collide;
#X obj 91 68 OSCroute /s*;
#X obj 227 81 bng 15 250 50 0 empty empty empty 17 7 0 10 -262144 -1
-1;
#X obj 227 186 vline~;
#X obj 68 165 osc~ 150;
#X msg 227 152 1 1 \, 0 100 1;
#X connect 0 0 8 0;
#X connect 0 0 9 0;
#X connect 2 0 0 0;
#X connect 4 0 7 1;
#X connect 5 0 13 0;
#X connect 6 0 7 0;
#X connect 7 0 3 0;
#X connect 7 0 3 1;
#X connect 8 0 1 0;
#X connect 8 0 5 0;
#X connect 9 0 8 0;
#X connect 10 0 5 0;
#X connect 11 0 4 1;
#X connect 12 0 4 0;
#X connect 13 0 11 0;
#X restore 192 187 pd beepcollide;
#X msg 615 134 2;
#N canvas 71 287 540 396 s3_accel 0;
#X obj 22 164 s osc;
#X msg 22 141 send /constraint/c1/force/magnitude/get;
#X obj 22 36 metro 10;
#X obj 22 13 tgl 15 0 empty empty empty 17 7 0 10 -262144 -1 -1 0 1
;
#X obj 162 308 OSCroute /magnitude;
#X floatatom 289 232 10 0 0 0 - - -;
#X floatatom 288 251 10 0 0 0 - - -;
#X text 369 251 velocity;
#X text 368 232 acceleration;
#X obj 313 311 tabwrite accel;
#X obj 371 280 f;
#X obj 402 280 + 1;
#X obj 345 277 bng 15 250 50 0 empty empty empty 17 7 0 10 -262144
-1 -1;
#X obj 429 299 mod 1000;
#X obj 291 283 * 10;
#X obj 23 238 OSCroute /object;
#X obj 23 306 OSCroute /magnitude;
#X obj 24 281 OSCroute /velocity /acceleration;
#X obj 47 14 inlet;
#X obj 24 210 r rosc;
#X obj 23 260 OSCroute /s3;
#X msg 35 75 send /object/s3/velocity/magnitude/get;
#X msg 35 97 send /object/s3/acceleration/magnitude/get;
#X msg 88 117 send /object/s3/destroy;
#X connect 1 0 0 0;
#X connect 2 0 1 0;
#X connect 2 0 21 0;
#X connect 2 0 22 0;
#X connect 3 0 2 0;
#X connect 4 0 5 0;
#X connect 5 0 12 0;
#X connect 5 0 14 0;
#X connect 10 0 11 0;
#X connect 11 0 13 0;
#X connect 12 0 10 0;
#X connect 13 0 10 1;
#X connect 13 0 9 1;
#X connect 14 0 9 0;
#X connect 15 0 20 0;
#X connect 16 0 6 0;
#X connect 17 0 16 0;
#X connect 17 1 4 0;
#X connect 18 0 3 0;
#X connect 19 0 15 0;
#X connect 20 0 17 0;
#X connect 21 0 0 0;
#X connect 22 0 0 0;
#X connect 23 0 0 0;
#X restore 257 398 pd s3_accel;
#X obj 257 369 tgl 15 0 empty empty empty 17 7 0 10 -262144 -1 -1 0
1;
#X connect 0 0 1 0;
#X connect 3 0 24 0;
#X connect 4 0 3 0;
#X connect 7 0 19 0;
#X connect 8 0 1 0;
#X connect 9 0 11 0;
#X connect 11 0 12 0;
#X connect 12 0 13 0;
#X connect 13 0 14 0;
#X connect 14 0 10 0;
#X connect 14 0 18 0;
#X connect 15 0 16 0;
#X connect 18 0 15 0;
#X connect 18 0 17 0;
#X connect 19 0 8 0;
#X connect 22 0 21 0;
#X connect 26 0 25 0;
#X connect 28 0 27 0;
#X connect 33 0 32 0;
#X connect 34 0 36 0;
#X connect 37 0 24 1;
#X connect 39 0 38 0;
