#N canvas 1027 67 1260 771 10;
#X obj 16 209 sendOSC;
#X obj 16 32 tgl 15 0 empty empty empty 17 7 0 10 -262144 -1 -1 1 1
;
#X msg 60 181 disconnect;
#X obj 16 82 tgl 15 0 empty empty empty 17 7 0 10 -262144 -1 -1 1 1
;
#X msg 16 103 send /graphics/enable \$1;
#X msg 16 52 send /haptics/enable \$1;
#X msg 16 157 connect 132.206.14.212 7770;
#X msg 16 136 connect localhost 7770;
#X obj 914 531 * 100;
#X obj 913 624 osc~;
#X obj 948 651 *~;
#X obj 947 716 dac~;
#X obj 1060 480 print;
#X obj 961 480 OSCroute /force;
#X obj 961 506 OSCroute /magnitude;
#X obj 914 555 + 100;
#X msg 16 10 1;
#X obj 914 601 vline~;
#X msg 914 577 \$1 100;
#X obj 978 561 bng 15 250 50 0 empty empty empty 0 -6 0 8 -262144 -1
-1;
#X msg 1003 560 stop;
#X obj 978 608 bng 15 250 50 0 empty empty empty 0 -6 0 8 -262144 -1
-1;
#X obj 978 536 t b b;
#X obj 978 584 delay 10;
#X obj 948 682 hip~ 5;
#X msg 978 631 0 100;
#X obj 20 284 bng 15 250 50 0 empty empty empty 0 -6 0 8 -262144 -1
-1;
#X msg 255 91 send /world/clear;
#X msg 20 373 send /object/stick/mass 2;
#X obj 20 447 s osc;
#X obj 23 181 r osc;
#X obj 255 114 s osc;
#X text 254 47 world;
#X text 44 8 turn on graphics and haptics;
#X text 18 264 Force Stick;
#X obj 20 303 t b b b b b;
#X msg 20 326 send /object/prism/create stick 0 0 0.15;
#X obj 465 102 bng 15 250 50 0 empty empty empty 17 7 0 10 -262144
-1 -1;
#X obj 875 301 s osc;
#X msg 502 265 send /object/prism/create bottom 0 0 0.005;
#X msg 465 444 send /object/bottom/size 0.3 0.3 0.01;
#X msg 502 181 send /object/prism/create leftside 0 -0.145 0.06;
#X msg 502 202 send /object/prism/create rightside 0 0.145 0.06;
#X msg 502 223 send /object/prism/create backside -0.145 0 0.06;
#X msg 465 465 send /object/leftside/size 0.3 0.01 0.1;
#X msg 465 486 send /object/rightside/size 0.3 0.01 0.1;
#X obj 465 126 t b b b;
#X obj 483 420 s osc;
#X obj 502 288 s osc;
#X obj 465 549 s osc;
#X msg 483 313 send /constraint/fixed/create fix1 leftside world;
#X msg 483 334 send /constraint/fixed/create fix2 rightside world;
#X msg 483 355 send /constraint/fixed/create fix3 backside world;
#X msg 483 376 send /constraint/fixed/create fix4 frontside world;
#X floatatom 850 90 5 0 0 0 - - -;
#X obj 851 40 bng 15 250 50 0 empty empty empty 0 -6 0 8 -262144 -1
-1;
#X obj 877 61 + 1;
#X msg 465 507 send /object/backside/size 0.01 0.28 0.1;
#X msg 465 528 send /object/frontside/size 0.01 0.28 0.02;
#X msg 502 244 send /object/prism/create frontside 0.145 0 0.02;
#X floatatom 686 26 5 0 0 0 - - -;
#X obj 850 113 pack 0 0;
#X msg 875 160 send /object/sphere/create \$1s 0 0 \$2;
#X obj 850 229 list prepend send;
#X obj 850 184 makesymbol /object/%ss/radius;
#X obj 850 254 list trim;
#X obj 850 136 t l l;
#X obj 850 207 pack s 0.02;
#X text 488 99 bang to create box;
#X text 687 39 move to create marbles;
#X text 499 25 MarbleBox;
#X obj 851 62 f;
#X obj 1031 251 list prepend send;
#X obj 1031 273 list trim;
#X obj 1031 227 pack s 0.02;
#X obj 1031 204 makesymbol /object/%ss/mass;
#X floatatom 322 25 5 0 500 0 - - -;
#X msg 254 67 send /world/gravity \$1;
#X obj 50 560 s osc;
#X msg 20 397 send /constraint/hinge/create c1 stick world 0 0 0 1
0 0;
#X msg 50 535 send /constraint/c1/force/magnitude/get;
#X obj 254 203 dumpOSC 7771;
#X obj 254 226 s rosc;
#X text 253 185 Receive on port 7771;
#X obj 961 458 r rosc;
#X obj 130 574 r rosc;
#X obj 50 505 metro 10;
#X obj 50 482 tgl 15 0 empty empty empty 17 7 0 10 -262144 -1 -1 0
1;
#X msg 20 421 send /constraint/c1/response/spring 0.5 0.1;
#X floatatom 130 684 10 0 0 0 - - -;
#X obj 130 596 OSCroute /constraint;
#X obj 130 618 OSCroute /c1;
#X obj 130 640 OSCroute /force;
#X obj 130 662 OSCroute /magnitude;
#X obj 204 707 osc~;
#X obj 210 728 dac~;
#X floatatom 245 709 5 0 0 0 - - -;
#X msg 20 349 send /object/stick/size 0.2 0.02 0.3;
#X obj 205 683 * -1000;
#X obj 893 88 / 25;
#X obj 322 47 / -100;
#X msg 483 398 send /constraint/fixed/create boxhinge bottom world
;
#X msg 873 22 0;
#X obj 502 151 bng 15 250 50 0 empty empty empty 17 7 0 10 -262144
-1 -1;
#X obj 483 288 bng 15 250 50 0 empty empty empty 17 7 0 10 -262144
-1 -1;
#X obj 465 420 bng 15 250 50 0 empty empty empty 17 7 0 10 -262144
-1 -1;
#X obj 1031 184 * 1;
#X connect 1 0 5 0;
#X connect 2 0 0 0;
#X connect 3 0 4 0;
#X connect 4 0 0 0;
#X connect 5 0 0 0;
#X connect 6 0 0 0;
#X connect 7 0 0 0;
#X connect 8 0 15 0;
#X connect 9 0 10 0;
#X connect 10 0 24 0;
#X connect 13 0 14 0;
#X connect 14 0 10 1;
#X connect 14 0 8 0;
#X connect 15 0 18 0;
#X connect 15 0 22 0;
#X connect 16 0 1 0;
#X connect 16 0 3 0;
#X connect 17 0 9 0;
#X connect 18 0 17 0;
#X connect 19 0 23 0;
#X connect 20 0 23 0;
#X connect 21 0 25 0;
#X connect 22 0 19 0;
#X connect 22 1 20 0;
#X connect 23 0 21 0;
#X connect 24 0 11 1;
#X connect 24 0 11 0;
#X connect 25 0 17 0;
#X connect 26 0 35 0;
#X connect 27 0 31 0;
#X connect 28 0 29 0;
#X connect 30 0 0 0;
#X connect 35 0 88 0;
#X connect 35 1 79 0;
#X connect 35 2 28 0;
#X connect 35 3 97 0;
#X connect 35 4 36 0;
#X connect 36 0 29 0;
#X connect 37 0 46 0;
#X connect 39 0 48 0;
#X connect 40 0 49 0;
#X connect 41 0 48 0;
#X connect 42 0 48 0;
#X connect 43 0 48 0;
#X connect 44 0 49 0;
#X connect 45 0 49 0;
#X connect 46 0 105 0;
#X connect 46 1 104 0;
#X connect 46 2 103 0;
#X connect 50 0 47 0;
#X connect 51 0 47 0;
#X connect 52 0 47 0;
#X connect 53 0 47 0;
#X connect 54 0 61 0;
#X connect 55 0 71 0;
#X connect 56 0 54 0;
#X connect 56 0 71 1;
#X connect 56 0 99 0;
#X connect 57 0 49 0;
#X connect 58 0 49 0;
#X connect 59 0 48 0;
#X connect 60 0 55 0;
#X connect 61 0 66 0;
#X connect 62 0 38 0;
#X connect 63 0 65 0;
#X connect 64 0 67 0;
#X connect 65 0 38 0;
#X connect 66 0 64 0;
#X connect 66 1 62 0;
#X connect 66 1 106 0;
#X connect 67 0 63 0;
#X connect 71 0 56 0;
#X connect 72 0 73 0;
#X connect 73 0 38 0;
#X connect 74 0 72 0;
#X connect 75 0 74 0;
#X connect 76 0 100 0;
#X connect 77 0 31 0;
#X connect 79 0 29 0;
#X connect 80 0 78 0;
#X connect 81 0 82 0;
#X connect 84 0 13 0;
#X connect 85 0 90 0;
#X connect 86 0 80 0;
#X connect 87 0 86 0;
#X connect 88 0 29 0;
#X connect 90 0 91 0;
#X connect 91 0 92 0;
#X connect 92 0 93 0;
#X connect 93 0 89 0;
#X connect 93 0 98 0;
#X connect 94 0 95 0;
#X connect 97 0 29 0;
#X connect 98 0 94 0;
#X connect 98 0 96 0;
#X connect 99 0 61 1;
#X connect 100 0 77 0;
#X connect 101 0 47 0;
#X connect 102 0 71 1;
#X connect 103 0 41 0;
#X connect 103 0 42 0;
#X connect 103 0 43 0;
#X connect 103 0 59 0;
#X connect 103 0 39 0;
#X connect 104 0 50 0;
#X connect 104 0 51 0;
#X connect 104 0 52 0;
#X connect 104 0 53 0;
#X connect 104 0 101 0;
#X connect 105 0 40 0;
#X connect 105 0 44 0;
#X connect 105 0 45 0;
#X connect 105 0 57 0;
#X connect 105 0 58 0;
#X connect 106 0 75 0;
