#N canvas 493 159 717 494 10;
#X obj 16 209 sendOSC;
#X obj 16 32 tgl 15 0 empty empty empty 17 7 0 10 -262144 -1 -1 1 1
;
#X msg 60 181 disconnect;
#X obj 16 82 tgl 15 0 empty empty empty 17 7 0 10 -262144 -1 -1 1 1
;
#X msg 16 103 send /graphics/enable \$1;
#X msg 16 52 send /haptics/enable \$1;
#X msg 16 157 connect 132.206.14.212 7770;
#X msg 16 136 connect localhost 7770;
#X obj 447 108 * 100;
#X obj 446 201 osc~;
#X obj 481 228 *~;
#X obj 480 293 dac~;
#X obj 593 57 print;
#X obj 494 57 OSCroute /force;
#X obj 494 83 OSCroute /magnitude;
#X obj 447 132 + 100;
#X obj 494 30 dumpOSC 7771;
#X msg 16 10 1;
#X obj 447 178 vline~;
#X msg 447 154 \$1 100;
#X obj 511 138 bng 15 250 50 0 empty empty empty 0 -6 0 8 -262144 -1
-1;
#X msg 536 137 stop;
#X obj 511 185 bng 15 250 50 0 empty empty empty 0 -6 0 8 -262144 -1
-1;
#X obj 511 113 t b b;
#X obj 511 161 delay 10;
#X obj 481 259 hip~ 5;
#X msg 511 208 0 100;
#X obj 20 284 bng 15 250 50 0 empty empty empty 0 -6 0 8 -262144 -1
-1;
#X msg 221 57 send /world/clear;
#X msg 436 389 send /object/sphere/create one 0 0.1 0;
#X msg 436 411 send /object/one/radius 0.04;
#X msg 436 367 send /object/one/force 0 -4 0.2;
#X msg 20 391 send /object/stick/mass 2;
#X msg 20 370 send /constraint/hinge/create c1 stick world 0 0 0 0
1 0;
#X msg 20 347 send /object/stick/size 0.02 0.1 0.3;
#X msg 221 33 send /world/gravity -5;
#X obj 20 412 s osc;
#X obj 23 181 r osc;
#X obj 221 82 s osc;
#X text 220 13 world;
#X text 48 4 turn on graphics and haptics;
#X text 18 264 Force Stick;
#X obj 20 303 t b b b b b;
#X msg 20 324 send /object/prism/create stick 0 0 0.15;
#X connect 1 0 5 0;
#X connect 2 0 0 0;
#X connect 3 0 4 0;
#X connect 4 0 0 0;
#X connect 5 0 0 0;
#X connect 6 0 0 0;
#X connect 7 0 0 0;
#X connect 8 0 15 0;
#X connect 9 0 10 0;
#X connect 10 0 25 0;
#X connect 13 0 14 0;
#X connect 14 0 10 1;
#X connect 14 0 8 0;
#X connect 15 0 19 0;
#X connect 15 0 23 0;
#X connect 16 0 13 0;
#X connect 17 0 1 0;
#X connect 17 0 3 0;
#X connect 18 0 9 0;
#X connect 19 0 18 0;
#X connect 20 0 24 0;
#X connect 21 0 24 0;
#X connect 22 0 26 0;
#X connect 23 0 20 0;
#X connect 23 1 21 0;
#X connect 24 0 22 0;
#X connect 25 0 11 1;
#X connect 25 0 11 0;
#X connect 26 0 18 0;
#X connect 27 0 42 0;
#X connect 28 0 38 0;
#X connect 32 0 36 0;
#X connect 33 0 36 0;
#X connect 34 0 36 0;
#X connect 35 0 38 0;
#X connect 37 0 0 0;
#X connect 42 1 32 0;
#X connect 42 2 33 0;
#X connect 42 3 34 0;
#X connect 42 4 43 0;
#X connect 43 0 36 0;
