#N canvas 1341 120 1070 751 10;
#X obj 16 209 sendOSC;
#X obj 16 32 tgl 15 0 empty empty empty 17 7 0 10 -262144 -1 -1 1 1
;
#X msg 60 181 disconnect;
#X obj 16 82 tgl 15 0 empty empty empty 17 7 0 10 -262144 -1 -1 1 1
;
#X msg 16 103 send /graphics/enable \$1;
#X msg 16 52 send /haptics/enable \$1;
#X msg 16 157 connect 132.206.14.212 7770;
#X msg 16 136 connect localhost 7770;
#X obj 259 556 * 100;
#X obj 258 649 osc~;
#X obj 293 676 *~;
#X obj 292 741 dac~;
#X obj 405 505 print;
#X obj 306 505 OSCroute /force;
#X obj 306 531 OSCroute /magnitude;
#X obj 259 580 + 100;
#X obj 306 478 dumpOSC 7771;
#X msg 16 10 1;
#X obj 259 626 vline~;
#X msg 259 602 \$1 100;
#X obj 323 586 bng 15 250 50 0 empty empty empty 0 -6 0 8 -262144 -1
-1;
#X msg 348 585 stop;
#X obj 323 633 bng 15 250 50 0 empty empty empty 0 -6 0 8 -262144 -1
-1;
#X obj 323 561 t b b;
#X obj 323 609 delay 10;
#X obj 293 707 hip~ 5;
#X msg 323 656 0 100;
#X obj 20 284 bng 15 250 50 0 empty empty empty 0 -6 0 8 -262144 -1
-1;
#X msg 221 57 send /world/clear;
#X msg 9 578 send /object/one/radius 0.04;
#X msg 9 534 send /object/one/force 0 -4 0.2;
#X msg 20 373 send /object/stick/mass 2;
#X obj 20 459 s osc;
#X obj 23 181 r osc;
#X obj 221 80 s osc;
#X text 220 13 world;
#X text 48 4 turn on graphics and haptics;
#X text 18 264 Force Stick;
#X obj 20 303 t b b b b b;
#X msg 20 326 send /object/prism/create stick 0 0 0.15;
#X msg 20 349 send /object/stick/size 0.1 0.02 0.3;
#X msg 20 435 send /constraint/c1/response/spring 0.2 0.1;
#X msg 20 398 send /constraint/universal/create c1 stick world 0 0
0 1 0 0 0 1 0;
#X obj 648 157 bng 15 250 50 0 empty empty empty 17 7 0 10 -262144
-1 -1;
#X text 704 44 PebbleBox;
#X obj 14 621 s osc;
#X obj 706 180 s osc;
#X msg 9 556 send /object/sphere/create one 0 0 0.1;
#X msg 685 210 send /object/prism/create bottom 0 0 0.005;
#X msg 648 230 send /object/bottom/size 0.3 0.3 0.01;
#X msg 685 253 send /object/prism/create leftside 0 -0.145 0.06;
#X msg 685 319 send /object/prism/create rightside 0 0.145 0.06;
#X msg 685 390 send /object/prism/create backside -0.145 0 0.06;
#X msg 648 276 send /object/leftside/size 0.3 0.01 0.1;
#X msg 648 342 send /object/rightside/size 0.3 0.01 0.1;
#X obj 648 181 t b b b;
#X obj 666 556 s osc;
#X obj 685 577 s osc;
#X obj 648 534 s osc;
#X msg 666 513 send /constraint/universal/create boxhinge bottom world
0 0 0 0 1 0 1 0 0;
#X msg 60 612 send /object/one/force 0 0 -1;
#X msg 666 296 send /constraint/fixed/create fix1 leftside world;
#X msg 666 365 send /constraint/fixed/create fix2 rightside world;
#X msg 666 432 send /constraint/fixed/create fix3 backside world;
#X msg 666 491 send /constraint/fixed/create fix4 frontside world;
#X floatatom 706 132 5 0 0 0 - - -;
#X obj 707 87 bng 15 250 50 0 empty empty empty 0 -6 0 8 -262144 -1
-1;
#X obj 733 108 + 1;
#X msg 648 411 send /object/backside/size 0.01 0.28 0.1;
#X msg 648 470 send /object/frontside/size 0.01 0.28 0.02;
#X msg 685 452 send /object/prism/create frontside 0.145 0 0.02;
#X floatatom 731 87 5 0 0 0 - - -;
#X obj 755 131 / 100;
#X obj 807 131 pack 0 0;
#X msg 706 153 send /object/sphere/create \$1s 0 0 \$2;
#X msg 221 33 send /world/gravity -0.03;
#X obj 707 109 f;
#X connect 1 0 5 0;
#X connect 2 0 0 0;
#X connect 3 0 4 0;
#X connect 4 0 0 0;
#X connect 5 0 0 0;
#X connect 6 0 0 0;
#X connect 7 0 0 0;
#X connect 8 0 15 0;
#X connect 9 0 10 0;
#X connect 10 0 25 0;
#X connect 13 0 14 0;
#X connect 14 0 10 1;
#X connect 14 0 8 0;
#X connect 15 0 19 0;
#X connect 15 0 23 0;
#X connect 16 0 13 0;
#X connect 17 0 1 0;
#X connect 17 0 3 0;
#X connect 18 0 9 0;
#X connect 19 0 18 0;
#X connect 20 0 24 0;
#X connect 21 0 24 0;
#X connect 22 0 26 0;
#X connect 23 0 20 0;
#X connect 23 1 21 0;
#X connect 24 0 22 0;
#X connect 25 0 11 1;
#X connect 25 0 11 0;
#X connect 26 0 18 0;
#X connect 27 0 38 0;
#X connect 28 0 34 0;
#X connect 31 0 32 0;
#X connect 33 0 0 0;
#X connect 38 0 41 0;
#X connect 38 1 42 0;
#X connect 38 2 31 0;
#X connect 38 3 40 0;
#X connect 38 4 39 0;
#X connect 39 0 32 0;
#X connect 40 0 32 0;
#X connect 41 0 32 0;
#X connect 42 0 32 0;
#X connect 43 0 55 0;
#X connect 47 0 45 0;
#X connect 48 0 57 0;
#X connect 49 0 58 0;
#X connect 50 0 57 0;
#X connect 51 0 57 0;
#X connect 52 0 57 0;
#X connect 53 0 58 0;
#X connect 54 0 58 0;
#X connect 55 0 69 0;
#X connect 55 0 68 0;
#X connect 55 0 54 0;
#X connect 55 0 53 0;
#X connect 55 0 49 0;
#X connect 55 1 61 0;
#X connect 55 1 62 0;
#X connect 55 1 63 0;
#X connect 55 1 64 0;
#X connect 55 1 59 0;
#X connect 55 2 48 0;
#X connect 55 2 50 0;
#X connect 55 2 51 0;
#X connect 55 2 52 0;
#X connect 55 2 70 0;
#X connect 59 0 56 0;
#X connect 60 0 45 0;
#X connect 61 0 56 0;
#X connect 62 0 56 0;
#X connect 63 0 56 0;
#X connect 64 0 56 0;
#X connect 65 0 73 0;
#X connect 66 0 76 0;
#X connect 67 0 65 0;
#X connect 67 0 72 0;
#X connect 67 0 76 1;
#X connect 68 0 58 0;
#X connect 69 0 58 0;
#X connect 70 0 57 0;
#X connect 71 0 66 0;
#X connect 72 0 73 1;
#X connect 73 0 74 0;
#X connect 74 0 46 0;
#X connect 75 0 34 0;
#X connect 76 0 67 0;
