#N canvas 322 132 702 547 10;
#X msg 504 139 send /world/clear;
#X obj 456 176 s osc;
#X obj 281 150 bng 15 250 50 0 empty empty empty 0 -6 0 8 -262144 -1
-1;
#X floatatom 116 136 5 0 0 0 - - -;
#X text 116 161 move to create marbles;
#X text 115 39 MarbleBox;
#X floatatom 456 69 5 0 500 0 - - -;
#X msg 456 114 send /world/gravity \$1;
#X obj 456 91 / -100;
#N canvas 5 46 450 300 (subpatch) 0;
#X array accel 1000 float 0;
#X coords 0 1 1000 0 200 140 1;
#X restore 429 353 graph;
#N canvas 302 54 691 665 createbox 0;
#X obj 34 18 inlet;
#X obj 34 130 / 2;
#X obj 34 165 -;
#X floatatom 34 195 5 0 0 0 - - -;
#X obj 70 130 / 2;
#X obj 70 165 -;
#X floatatom 70 195 5 0 0 0 - - -;
#X floatatom 178 195 5 0 0 0 - - -;
#X obj 34 98 unpack 0 0 0 0 0;
#X obj 106 130 / 2;
#X obj 106 165 +;
#X floatatom 106 195 5 0 0 0 - - -;
#X obj 142 129 / 2;
#X obj 142 165 +;
#X floatatom 142 195 5 0 0 0 - - -;
#X obj 178 128 / 2;
#X obj 10 98 bng 15 250 50 0 empty empty empty 17 7 0 10 -262144 -1
-1;
#X obj 70 219 * -1;
#X obj 34 219 * -1;
#X obj 10 257 pack 0 0 0 0 0 0 0 0 0 0 0 0 0;
#X obj 10 281 t l l l;
#X msg 28 435 send /constraint/fixed/create fix1 leftside world;
#X msg 28 456 send /constraint/fixed/create fix2 rightside world;
#X msg 28 477 send /constraint/fixed/create fix3 backside world;
#X msg 28 498 send /constraint/fixed/create fix4 frontside world;
#X msg 28 520 send /constraint/fixed/create boxhinge bottom world;
#X obj 28 544 s osc;
#X obj 47 411 s osc;
#X obj 10 673 s osc;
#X obj 34 46 bng 15 250 50 0 empty empty empty 17 7 0 10 -262144 -1
-1;
#X text 57 43 bang to create box;
#X msg 47 305 send /object/prism/create leftside 0 \$7 \$9;
#X msg 47 326 send /object/prism/create rightside 0 \$6 \$9;
#X msg 47 347 send /object/prism/create backside \$4 0 \$9;
#X msg 47 368 send /object/prism/create frontside \$3 0 \$11;
#X msg 47 389 send /object/prism/create bottom 0 0 \$13;
#X msg 10 566 send /object/bottom/size \$2 \$5 \$12;
#X msg 10 587 send /object/leftside/size \$2 \$12 \$8;
#X msg 10 608 send /object/rightside/size \$2 \$12 \$8;
#X msg 10 629 send /object/backside/size \$12 \$5 \$8;
#X msg 10 650 send /object/frontside/size \$12 \$5 \$10;
#X msg 34 70 0.4 0.4 0.2 0.03 0.03;
#N canvas 412 303 355 265 texture 0;
#X obj 40 223 s osc;
#X msg 40 118 send /object/leftside/texture/image \$1;
#X msg 40 139 send /object/rightside/texture/image \$1;
#X msg 40 160 send /object/backside/texture/image \$1;
#X msg 40 181 send /object/frontside/texture/image \$1;
#X msg 40 202 send /object/bottom/texture/image \$1;
#X obj 40 3 inlet;
#X obj 40 53 getdir;
#X obj 40 33 bng 15 250 50 0 empty empty empty 17 7 0 10 -262144 -1
-1;
#X obj 40 97 t s s s s s;
#X msg 40 75 symbol \$1/marble.tga;
#X connect 1 0 0 0;
#X connect 2 0 0 0;
#X connect 3 0 0 0;
#X connect 4 0 0 0;
#X connect 5 0 0 0;
#X connect 6 0 8 0;
#X connect 7 0 10 0;
#X connect 8 0 7 0;
#X connect 9 0 5 0;
#X connect 9 1 4 0;
#X connect 9 2 3 0;
#X connect 9 3 2 0;
#X connect 9 4 1 0;
#X connect 10 0 9 0;
#X restore 69 282 pd texture;
#X connect 0 0 29 0;
#X connect 1 0 2 0;
#X connect 2 0 3 0;
#X connect 3 0 18 0;
#X connect 3 0 19 2;
#X connect 4 0 5 0;
#X connect 5 0 6 0;
#X connect 6 0 17 0;
#X connect 6 0 19 5;
#X connect 7 0 19 12;
#X connect 8 0 1 0;
#X connect 8 0 19 1;
#X connect 8 1 4 0;
#X connect 8 1 19 4;
#X connect 8 2 9 0;
#X connect 8 2 19 7;
#X connect 8 3 12 0;
#X connect 8 3 19 9;
#X connect 8 4 15 0;
#X connect 8 4 19 11;
#X connect 9 0 10 0;
#X connect 10 0 11 0;
#X connect 11 0 19 8;
#X connect 12 0 13 0;
#X connect 13 0 14 0;
#X connect 14 0 19 10;
#X connect 15 0 13 1;
#X connect 15 0 10 1;
#X connect 15 0 5 1;
#X connect 15 0 2 1;
#X connect 15 0 7 0;
#X connect 16 0 19 0;
#X connect 17 0 19 6;
#X connect 18 0 19 3;
#X connect 19 0 20 0;
#X connect 20 0 36 0;
#X connect 20 0 37 0;
#X connect 20 0 38 0;
#X connect 20 0 39 0;
#X connect 20 0 40 0;
#X connect 20 1 21 0;
#X connect 20 1 22 0;
#X connect 20 1 23 0;
#X connect 20 1 24 0;
#X connect 20 1 25 0;
#X connect 20 2 31 0;
#X connect 20 2 32 0;
#X connect 20 2 33 0;
#X connect 20 2 34 0;
#X connect 20 2 35 0;
#X connect 21 0 26 0;
#X connect 22 0 26 0;
#X connect 23 0 26 0;
#X connect 24 0 26 0;
#X connect 25 0 26 0;
#X connect 29 0 41 0;
#X connect 31 0 27 0;
#X connect 32 0 27 0;
#X connect 33 0 27 0;
#X connect 34 0 27 0;
#X connect 35 0 27 0;
#X connect 36 0 28 0;
#X connect 37 0 28 0;
#X connect 38 0 28 0;
#X connect 39 0 28 0;
#X connect 40 0 28 0;
#X connect 41 0 8 0;
#X connect 41 0 16 0;
#X restore 116 107 pd createbox;
#X obj 116 79 bng 15 250 50 0 empty empty empty 17 7 0 10 -262144 -1
-1;
#X text 139 81 bang to create box;
#N canvas 291 172 477 369 createmarble 0;
#X obj 314 336 s osc;
#X floatatom 28 54 5 0 0 0 - - -;
#X obj 55 25 + 1;
#X obj 314 284 list prepend send;
#X obj 314 311 list trim;
#X obj 28 100 t l l;
#X obj 29 26 f;
#X obj 204 185 pack s 0.02;
#X obj 157 51 / 25;
#X obj 194 55 / 500;
#X obj 28 77 pack 0 0 0;
#X obj 29 -3 inlet;
#X obj 88 -1 inlet;
#X obj 204 143 * 1;
#X obj 4 29 bng 15 250 50 0 empty empty empty 17 7 0 10 -262144 -1
-1;
#X obj 194 -1 % 8;
#X obj 157 24 + 10;
#X msg 4 276 /object/collide/get 1;
#N canvas 660 564 362 243 texture 0;
#X obj 27 63 makefilename /object/%ds/texture/image;
#X obj 150 105 getdir;
#X obj 150 86 bng 15 250 50 0 empty empty empty 17 7 0 10 -262144 -1
-1;
#X obj 150 126 makefilename %s/gradient.tga;
#X msg 27 181 \$1 \$2;
#X obj 27 155 pack s s;
#X obj 27 35 inlet;
#X obj 27 213 outlet;
#X obj 148 37 inlet;
#X connect 0 0 5 0;
#X connect 1 0 3 0;
#X connect 2 0 1 0;
#X connect 3 0 5 1;
#X connect 4 0 7 0;
#X connect 5 0 4 0;
#X connect 6 0 0 0;
#X connect 8 0 2 0;
#X restore 331 117 pd texture;
#X msg 58 214 /object/sphere/create \$1s \$3 \$3 \$2;
#X msg 204 164 /object/\$1s/mass;
#X msg 28 237 /object/\$1s/radius 0.02;
#X connect 1 0 10 0;
#X connect 2 0 6 1;
#X connect 2 0 15 0;
#X connect 3 0 4 0;
#X connect 4 0 0 0;
#X connect 5 0 18 0;
#X connect 5 0 21 0;
#X connect 5 1 19 0;
#X connect 5 1 13 0;
#X connect 5 1 18 1;
#X connect 6 0 2 0;
#X connect 6 0 1 0;
#X connect 7 0 3 0;
#X connect 8 0 10 1;
#X connect 9 0 10 2;
#X connect 10 0 5 0;
#X connect 11 0 6 0;
#X connect 11 0 14 0;
#X connect 12 0 6 1;
#X connect 13 0 20 0;
#X connect 14 0 17 0;
#X connect 15 0 9 0;
#X connect 15 0 16 0;
#X connect 16 0 8 0;
#X connect 17 0 3 0;
#X connect 18 0 3 0;
#X connect 19 0 3 0;
#X connect 20 0 7 0;
#X connect 21 0 3 0;
#X restore 281 173 pd createmarble;
#N canvas 530 283 462 312 connect 0;
#X obj 20 241 sendOSC;
#X obj 20 64 tgl 15 0 empty empty empty 17 7 0 10 -262144 -1 -1 1 1
;
#X msg 80 213 disconnect;
#X obj 20 114 tgl 15 0 empty empty empty 17 7 0 10 -262144 -1 -1 1
1;
#X msg 20 135 send /graphics/enable \$1;
#X msg 20 84 send /haptics/enable \$1;
#X msg 36 189 connect 132.206.14.212 7770;
#X msg 36 168 connect localhost 7770;
#X obj 27 213 r osc;
#X msg 20 42 1;
#X text 48 40 turn on graphics and haptics;
#X obj 20 0 inlet;
#X obj 278 104 dumpOSC 7771;
#X obj 278 127 s rosc;
#X text 277 86 Receive on port 7771;
#X msg 292 185 0;
#X obj 255 202 spigot 1;
#X obj 260 167 t b b;
#X obj 20 21 t b b;
#X connect 1 0 5 0;
#X connect 2 0 0 0;
#X connect 3 0 4 0;
#X connect 4 0 0 0;
#X connect 5 0 0 0;
#X connect 6 0 0 0;
#X connect 7 0 0 0;
#X connect 8 0 0 0;
#X connect 9 0 1 0;
#X connect 9 0 3 0;
#X connect 11 0 18 0;
#X connect 12 0 13 0;
#X connect 15 0 16 1;
#X connect 16 0 7 0;
#X connect 17 0 15 0;
#X connect 17 1 16 0;
#X connect 18 0 9 0;
#X connect 18 1 17 0;
#X restore 17 129 pd connect;
#X obj 17 108 bng 15 250 50 0 empty empty empty 17 7 0 10 -262144 -1
-1;
#N canvas 289 164 347 393 smash 0;
#X obj 36 312 list prepend send;
#X obj 36 335 list trim;
#X obj 36 358 s osc;
#X msg 36 73 /object/sphere/create s1 0 0.1 0;
#X msg 36 93 /object/sphere/create s2 0 -0.1 0;
#X msg 22 140 /object/s1/force 0 -0.5 0;
#X msg 22 160 /object/s2/force 0 0.5 0;
#X obj 35 40 bng 15 250 50 0 empty empty empty 17 7 0 10 -262144 -1
-1;
#X obj 32 15 inlet;
#X msg 36 113 /object/sphere/create s3 0 0 0.1;
#X msg 22 180 /object/s3/force 0 0 -0.5;
#X msg 22 216 /object/s1/collide/get 1;
#X msg 22 236 /object/s2/collide/get 1;
#X msg 22 256 /object/s3/collide/get 1;
#X connect 0 0 1 0;
#X connect 1 0 2 0;
#X connect 3 0 0 0;
#X connect 4 0 0 0;
#X connect 5 0 0 0;
#X connect 6 0 0 0;
#X connect 7 0 3 0;
#X connect 7 0 4 0;
#X connect 7 0 5 0;
#X connect 7 0 6 0;
#X connect 7 0 9 0;
#X connect 7 0 10 0;
#X connect 7 0 11 0;
#X connect 7 0 12 0;
#X connect 8 0 7 0;
#X connect 9 0 0 0;
#X connect 10 0 0 0;
#X connect 11 0 0 0;
#X connect 12 0 0 0;
#X connect 13 0 0 0;
#X restore 53 287 pd smash;
#X obj 53 263 bng 15 250 50 0 empty empty empty 17 7 0 10 -262144 -1
-1;
#X obj 56 404 tgl 15 0 empty empty empty 17 7 0 10 -262144 -1 -1 1
1;
#X text 80 404 audio;
#N canvas 397 472 478 328 beepcollide 0;
#X obj 78 47 OSCroute /object;
#X obj 78 133 print collided;
#X obj 79 26 r rosc;
#X obj 26 272 dac~;
#X obj 31 11 inlet;
#X obj 31 229 *~;
#X obj 78 90 OSCroute /collide;
#X obj 91 68 OSCroute /s*;
#X obj 139 112 unpack s s 0;
#X obj 227 149 clip 0 1;
#X msg 209 14 \; pd dsp 1;
#X obj 209 -6 select 1;
#N canvas 0 0 874 532 modal 0;
#N canvas 0 0 450 300 (subpatch) 0;
#X array array2 64 float 1;
#A 0 -5.97443e-19 -5.89144e-19 -5.80767e-19 -5.72336e-19 -5.6388e-19
-5.55425e-19 -5.46999e-19 -5.38631e-19 -5.30348e-19 -5.22179e-19 -5.14154e-19
-5.06302e-19 -4.98652e-19 -4.91236e-19 -4.84081e-19 -4.7722e-19 -4.70682e-19
-4.64497e-19 -4.58697e-19 -4.53312e-19 -4.48372e-19 -4.43907e-19 -4.39949e-19
-4.36527e-19 -4.3367e-19 -4.3141e-19 -4.29774e-19 -4.28791e-19 -4.28491e-19
-4.289e-19 -4.30046e-19 -4.31955e-19 -4.34654e-19 -4.38166e-19 -4.42517e-19
-4.47728e-19 -4.53823e-19 -4.60821e-19 -4.68742e-19 -4.77605e-19 -4.87427e-19
-4.98221e-19 -5.10003e-19 -5.22784e-19 -5.36575e-19 -5.51384e-19 -5.67218e-19
-5.84081e-19 -6.01976e-19 -6.20902e-19 -6.40859e-19 -6.61842e-19 -6.83844e-19
-7.06857e-19 -7.30869e-19 -7.55867e-19 -7.81833e-19 -8.0875e-19 -8.36595e-19
-8.65343e-19 -8.9497e-19 -9.24911e-19 -9.55668e-19 -9.87206e-19;
#X coords 0 1 63 -1 200 140 1;
#X restore 134 358 graph;
#N canvas 0 0 450 300 (subpatch) 0;
#X array array3 64 float 3;
#A 0 -0.0857145 0.485715 0.0142857 -0.0142857 -0.0142857 0 0 0 0 0
0 0 0 0 0 0 0 0 0 0 0 0 0 0 0 0 0 0 0 0 0 0 0 0 0 0 0 0 0 0 0 0 0 0
0 0 0 0 0 0 0 0 0 0 0 0 0 0 0 0 0 0 0 0;
#X coords 0 1 63 -1 200 140 1;
#X restore 458 348 graph;
#X obj 126 67 tabplay~ array3;
#X obj 82 25 bng 15 250 50 0 empty empty empty 0 -6 0 8 -262144 -1
-1;
#X msg 484 294 \; array3 const 0 \;;
#X obj 591 321 tabwrite array3;
#X floatatom 594 265 5 0 0 0 - - -;
#X floatatom 151 137 5 0 0 0 - - -;
#X obj 134 314 tabwrite~ array2;
#X obj 168 270 bang~;
#X msg 398 132 1 0.5 0.3 0.2 0.1;
#X obj 228 49 spigot;
#N canvas 0 0 458 308 bangss 0;
#X obj 161 53 block~ 4096;
#X obj 103 116 bang~;
#X obj 105 185 outlet;
#X obj 170 154 s bangsss;
#X connect 1 0 3 0;
#X restore 188 17 pd bangss;
#X obj 113 24 bng 15 250 50 0 empty empty empty 0 -6 0 8 -262144 -1
-1;
#X msg 372 54 0;
#X msg 336 29 1;
#X obj 273 15 r bangsss;
#X obj 371 27 delay 1000;
#X floatatom 681 263 5 0 0 0 - - -;
#X msg 602 131 750 750 800 650 750;
#X obj 434 60 loadbang;
#X obj 399 89 t b b;
#X obj 133 270 *~ 1;
#X text 148 157 fund. freq;
#X text 244 158 overtone series;
#X text 404 151 amplitude series;
#X text 608 157 exp. decay rates in ms;
#X text 473 250 Impulse table (draw an impulse here);
#X text 589 174 (decays by 20 dB in the time given);
#X text 109 44 click the bangs;
#X obj 410 61 bng 15 250 50 0 empty empty empty 17 7 0 10 -262144 -1
-1;
#X obj 122 110 *~;
#X obj 26 -11 r hit;
#X obj 34 26 t b f;
#X msg 231 135 1 3 5 6.18 8.12;
#X msg 38 79 1;
#X msg 275 93 62;
#X obj 74 -10 inlet;
#X obj 155 106 inlet;
#N canvas 0 0 731 433 perc_inst1 0;
#X obj 118 113 * 1;
#X obj 208 115 * 3;
#X obj 294 116 * 5;
#X obj 376 116 * 6.12372;
#X obj 453 119 * 7.07107;
#X obj 118 148 pack f f;
#X obj 208 150 pack f f;
#X obj 294 151 pack f f;
#X obj 376 151 pack f f;
#X obj 453 154 pack f f;
#X obj 26 20 inlet~;
#X obj 114 23 inlet;
#X text 94 5 fundamental freq.;
#X obj 233 25 inlet;
#X obj 207 58 unpack f f f f f;
#X text 263 8 overtone series;
#X obj 122 216 sig~;
#X obj 98 263 *~;
#X obj 212 214 sig~;
#X obj 188 261 *~;
#X obj 295 216 sig~;
#X obj 271 263 *~;
#X obj 380 217 sig~;
#X obj 356 264 *~;
#X obj 458 216 sig~;
#X obj 434 263 *~;
#X obj 409 23 inlet;
#X obj 383 56 unpack 0 0 0 0 0;
#X obj 114 337 +~;
#X obj 111 398 outlet~;
#X obj 564 21 inlet;
#X obj 538 54 unpack 1 1 1 1 1;
#X text 408 4 amplitudes;
#X text 540 6 decay by 10 \, time in ms;
#N canvas 0 0 353 493 ds 0;
#X obj 12 384 biquad~;
#X obj 57 351 pack f f f f f;
#X obj 145 188 exp;
#X obj 156 98 * 44.1;
#X text 209 96 ms to samples;
#X obj 156 119 t b f;
#X obj 145 154 / 44100;
#X msg 91 118 -2.30259;
#X obj 145 219 t f f;
#X obj 17 148 * 6.28319;
#X obj 63 208 sin;
#X obj 26 210 cos;
#X obj 60 257 * 2;
#X obj 45 290 * 1;
#X obj 92 256 t f f;
#X obj 92 279 * 1;
#X obj 82 313 * -1;
#X msg 132 302 0;
#X obj 166 303 * 1;
#X msg 199 302 0;
#X obj 32 119 / 44100;
#X obj 34 180 t f f;
#X text 176 189 a;
#X text 13 229 cos and sin of b;
#X obj 32 75 unpack f f;
#X obj 56 460 outlet~;
#X obj 11 31 inlet~;
#X obj 68 15 inlet;
#X text 113 27 takes a list of arguments;
#X text 94 39 fundamental freq \, and exponential;
#X text 197 50 decay time in ms;
#X obj 88 95 f;
#X obj 33 98 t f b;
#X connect 0 0 25 0;
#X connect 1 0 0 0;
#X connect 2 0 8 0;
#X connect 3 0 5 0;
#X connect 5 0 7 0;
#X connect 5 1 6 1;
#X connect 6 0 2 0;
#X connect 7 0 6 0;
#X connect 8 0 12 0;
#X connect 8 1 14 0;
#X connect 8 1 17 0;
#X connect 8 1 19 0;
#X connect 8 1 18 1;
#X connect 9 0 21 0;
#X connect 10 0 18 0;
#X connect 11 0 13 0;
#X connect 12 0 13 1;
#X connect 13 0 1 0;
#X connect 14 0 15 0;
#X connect 14 1 15 1;
#X connect 15 0 16 0;
#X connect 16 0 1 1;
#X connect 17 0 1 2;
#X connect 18 0 1 3;
#X connect 19 0 1 4;
#X connect 20 0 9 0;
#X connect 21 0 11 0;
#X connect 21 1 10 0;
#X connect 24 0 32 0;
#X connect 24 1 31 1;
#X connect 26 0 0 0;
#X connect 27 0 24 0;
#X connect 31 0 3 0;
#X connect 32 0 20 0;
#X connect 32 1 31 0;
#X restore 434 183 pd ds;
#N canvas 0 0 353 493 ds 0;
#X obj 12 384 biquad~;
#X obj 57 351 pack f f f f f;
#X obj 145 188 exp;
#X obj 156 98 * 44.1;
#X text 209 96 ms to samples;
#X obj 156 119 t b f;
#X obj 145 154 / 44100;
#X msg 91 118 -2.30259;
#X obj 145 219 t f f;
#X obj 17 148 * 6.28319;
#X obj 63 208 sin;
#X obj 26 210 cos;
#X obj 60 257 * 2;
#X obj 45 290 * 1;
#X obj 92 256 t f f;
#X obj 92 279 * 1;
#X obj 82 313 * -1;
#X msg 132 302 0;
#X obj 166 303 * 1;
#X msg 199 302 0;
#X obj 32 119 / 44100;
#X obj 34 180 t f f;
#X text 176 189 a;
#X text 13 229 cos and sin of b;
#X obj 32 75 unpack f f;
#X obj 56 460 outlet~;
#X obj 11 31 inlet~;
#X obj 68 15 inlet;
#X text 113 27 takes a list of arguments;
#X text 94 39 fundamental freq \, and exponential;
#X text 197 50 decay time in ms;
#X obj 88 95 f;
#X obj 33 98 t f b;
#X connect 0 0 25 0;
#X connect 1 0 0 0;
#X connect 2 0 8 0;
#X connect 3 0 5 0;
#X connect 5 0 7 0;
#X connect 5 1 6 1;
#X connect 6 0 2 0;
#X connect 7 0 6 0;
#X connect 8 0 12 0;
#X connect 8 1 14 0;
#X connect 8 1 17 0;
#X connect 8 1 19 0;
#X connect 8 1 18 1;
#X connect 9 0 21 0;
#X connect 10 0 18 0;
#X connect 11 0 13 0;
#X connect 12 0 13 1;
#X connect 13 0 1 0;
#X connect 14 0 15 0;
#X connect 14 1 15 1;
#X connect 15 0 16 0;
#X connect 16 0 1 1;
#X connect 17 0 1 2;
#X connect 18 0 1 3;
#X connect 19 0 1 4;
#X connect 20 0 9 0;
#X connect 21 0 11 0;
#X connect 21 1 10 0;
#X connect 24 0 32 0;
#X connect 24 1 31 1;
#X connect 26 0 0 0;
#X connect 27 0 24 0;
#X connect 31 0 3 0;
#X connect 32 0 20 0;
#X connect 32 1 31 0;
#X restore 356 183 pd ds;
#N canvas 0 0 353 493 ds 0;
#X obj 12 384 biquad~;
#X obj 57 351 pack f f f f f;
#X obj 145 188 exp;
#X obj 156 98 * 44.1;
#X text 209 96 ms to samples;
#X obj 156 119 t b f;
#X obj 145 154 / 44100;
#X msg 91 118 -2.30259;
#X obj 145 219 t f f;
#X obj 17 148 * 6.28319;
#X obj 63 208 sin;
#X obj 26 210 cos;
#X obj 60 257 * 2;
#X obj 45 290 * 1;
#X obj 92 256 t f f;
#X obj 92 279 * 1;
#X obj 82 313 * -1;
#X msg 132 302 0;
#X obj 166 303 * 1;
#X msg 199 302 0;
#X obj 32 119 / 44100;
#X obj 34 180 t f f;
#X text 176 189 a;
#X text 13 229 cos and sin of b;
#X obj 32 75 unpack f f;
#X obj 56 460 outlet~;
#X obj 11 31 inlet~;
#X obj 68 15 inlet;
#X text 113 27 takes a list of arguments;
#X text 94 39 fundamental freq \, and exponential;
#X text 197 50 decay time in ms;
#X obj 88 95 f;
#X obj 33 98 t f b;
#X connect 0 0 25 0;
#X connect 1 0 0 0;
#X connect 2 0 8 0;
#X connect 3 0 5 0;
#X connect 5 0 7 0;
#X connect 5 1 6 1;
#X connect 6 0 2 0;
#X connect 7 0 6 0;
#X connect 8 0 12 0;
#X connect 8 1 14 0;
#X connect 8 1 17 0;
#X connect 8 1 19 0;
#X connect 8 1 18 1;
#X connect 9 0 21 0;
#X connect 10 0 18 0;
#X connect 11 0 13 0;
#X connect 12 0 13 1;
#X connect 13 0 1 0;
#X connect 14 0 15 0;
#X connect 14 1 15 1;
#X connect 15 0 16 0;
#X connect 16 0 1 1;
#X connect 17 0 1 2;
#X connect 18 0 1 3;
#X connect 19 0 1 4;
#X connect 20 0 9 0;
#X connect 21 0 11 0;
#X connect 21 1 10 0;
#X connect 24 0 32 0;
#X connect 24 1 31 1;
#X connect 26 0 0 0;
#X connect 27 0 24 0;
#X connect 31 0 3 0;
#X connect 32 0 20 0;
#X connect 32 1 31 0;
#X restore 272 184 pd ds;
#N canvas 0 0 353 493 ds 0;
#X obj 12 384 biquad~;
#X obj 57 351 pack f f f f f;
#X obj 145 188 exp;
#X obj 156 98 * 44.1;
#X text 209 96 ms to samples;
#X obj 156 119 t b f;
#X obj 145 154 / 44100;
#X msg 91 118 -2.30259;
#X obj 145 219 t f f;
#X obj 17 148 * 6.28319;
#X obj 63 208 sin;
#X obj 26 210 cos;
#X obj 60 257 * 2;
#X obj 45 290 * 1;
#X obj 92 256 t f f;
#X obj 92 279 * 1;
#X obj 82 313 * -1;
#X msg 132 302 0;
#X obj 166 303 * 1;
#X msg 199 302 0;
#X obj 32 119 / 44100;
#X obj 34 180 t f f;
#X text 176 189 a;
#X text 13 229 cos and sin of b;
#X obj 32 75 unpack f f;
#X obj 56 460 outlet~;
#X obj 11 31 inlet~;
#X obj 68 15 inlet;
#X text 113 27 takes a list of arguments;
#X text 94 39 fundamental freq \, and exponential;
#X text 197 50 decay time in ms;
#X obj 88 95 f;
#X obj 33 98 t f b;
#X connect 0 0 25 0;
#X connect 1 0 0 0;
#X connect 2 0 8 0;
#X connect 3 0 5 0;
#X connect 5 0 7 0;
#X connect 5 1 6 1;
#X connect 6 0 2 0;
#X connect 7 0 6 0;
#X connect 8 0 12 0;
#X connect 8 1 14 0;
#X connect 8 1 17 0;
#X connect 8 1 19 0;
#X connect 8 1 18 1;
#X connect 9 0 21 0;
#X connect 10 0 18 0;
#X connect 11 0 13 0;
#X connect 12 0 13 1;
#X connect 13 0 1 0;
#X connect 14 0 15 0;
#X connect 14 1 15 1;
#X connect 15 0 16 0;
#X connect 16 0 1 1;
#X connect 17 0 1 2;
#X connect 18 0 1 3;
#X connect 19 0 1 4;
#X connect 20 0 9 0;
#X connect 21 0 11 0;
#X connect 21 1 10 0;
#X connect 24 0 32 0;
#X connect 24 1 31 1;
#X connect 26 0 0 0;
#X connect 27 0 24 0;
#X connect 31 0 3 0;
#X connect 32 0 20 0;
#X connect 32 1 31 0;
#X restore 189 183 pd ds;
#N canvas 0 0 353 493 ds 0;
#X obj 12 384 biquad~;
#X obj 57 351 pack f f f f f;
#X obj 145 188 exp;
#X obj 156 98 * 44.1;
#X text 209 96 ms to samples;
#X obj 156 119 t b f;
#X obj 145 154 / 44100;
#X msg 91 118 -2.30259;
#X obj 145 219 t f f;
#X obj 17 148 * 6.28319;
#X obj 63 208 sin;
#X obj 26 210 cos;
#X obj 60 257 * 2;
#X obj 45 290 * 1;
#X obj 92 256 t f f;
#X obj 92 279 * 1;
#X obj 82 313 * -1;
#X msg 132 302 0;
#X obj 166 303 * 1;
#X msg 199 302 0;
#X obj 32 119 / 44100;
#X obj 34 180 t f f;
#X text 176 189 a;
#X text 13 229 cos and sin of b;
#X obj 32 75 unpack f f;
#X obj 56 460 outlet~;
#X obj 11 31 inlet~;
#X obj 68 15 inlet;
#X text 113 27 takes a list of arguments;
#X text 94 39 fundamental freq \, and exponential;
#X text 197 50 decay time in ms;
#X obj 88 95 f;
#X obj 33 98 t f b;
#X connect 0 0 25 0;
#X connect 1 0 0 0;
#X connect 2 0 8 0;
#X connect 3 0 5 0;
#X connect 5 0 7 0;
#X connect 5 1 6 1;
#X connect 6 0 2 0;
#X connect 7 0 6 0;
#X connect 8 0 12 0;
#X connect 8 1 14 0;
#X connect 8 1 17 0;
#X connect 8 1 19 0;
#X connect 8 1 18 1;
#X connect 9 0 21 0;
#X connect 10 0 18 0;
#X connect 11 0 13 0;
#X connect 12 0 13 1;
#X connect 13 0 1 0;
#X connect 14 0 15 0;
#X connect 14 1 15 1;
#X connect 15 0 16 0;
#X connect 16 0 1 1;
#X connect 17 0 1 2;
#X connect 18 0 1 3;
#X connect 19 0 1 4;
#X connect 20 0 9 0;
#X connect 21 0 11 0;
#X connect 21 1 10 0;
#X connect 24 0 32 0;
#X connect 24 1 31 1;
#X connect 26 0 0 0;
#X connect 27 0 24 0;
#X connect 31 0 3 0;
#X connect 32 0 20 0;
#X connect 32 1 31 0;
#X restore 99 182 pd ds;
#X connect 0 0 5 0;
#X connect 1 0 6 0;
#X connect 2 0 7 0;
#X connect 3 0 8 0;
#X connect 4 0 9 0;
#X connect 5 0 38 1;
#X connect 6 0 37 1;
#X connect 7 0 36 1;
#X connect 8 0 35 1;
#X connect 9 0 34 1;
#X connect 10 0 34 0;
#X connect 10 0 35 0;
#X connect 10 0 36 0;
#X connect 10 0 37 0;
#X connect 10 0 38 0;
#X connect 11 0 0 0;
#X connect 11 0 1 0;
#X connect 11 0 2 0;
#X connect 11 0 3 0;
#X connect 11 0 4 0;
#X connect 13 0 14 0;
#X connect 14 0 0 1;
#X connect 14 1 1 1;
#X connect 14 2 2 1;
#X connect 14 3 3 1;
#X connect 14 4 4 1;
#X connect 16 0 17 1;
#X connect 17 0 28 0;
#X connect 18 0 19 1;
#X connect 19 0 28 0;
#X connect 20 0 21 1;
#X connect 21 0 28 0;
#X connect 22 0 23 1;
#X connect 23 0 28 0;
#X connect 24 0 25 1;
#X connect 25 0 28 0;
#X connect 26 0 27 0;
#X connect 27 0 16 0;
#X connect 27 1 18 0;
#X connect 27 2 20 0;
#X connect 27 3 22 0;
#X connect 27 4 24 0;
#X connect 28 0 29 0;
#X connect 30 0 31 0;
#X connect 31 0 5 1;
#X connect 31 1 6 1;
#X connect 31 2 7 1;
#X connect 31 3 8 1;
#X connect 31 4 9 1;
#X connect 34 0 25 0;
#X connect 35 0 23 0;
#X connect 36 0 21 0;
#X connect 37 0 19 0;
#X connect 38 0 17 0;
#X restore 132 225 pd perc_inst1;
#X obj 37 58 loadbang;
#X obj 305 325 outlet~;
#X obj 306 261 *~ 1;
#X text 464 1 This modal synthesis patch (and all subpatches herein)
;
#X text 465 16 was posted to the PD mailing list by Charles Henry \,
2007;
#X text 464 36 Distributed here with permission.;
#X connect 2 0 31 0;
#X connect 3 0 2 0;
#X connect 6 0 5 0;
#X connect 7 0 39 1;
#X connect 9 0 8 0;
#X connect 10 0 39 3;
#X connect 11 0 2 0;
#X connect 13 0 15 0;
#X connect 13 0 17 0;
#X connect 14 0 11 1;
#X connect 15 0 11 1;
#X connect 16 0 11 0;
#X connect 17 0 14 0;
#X connect 18 0 5 1;
#X connect 19 0 39 4;
#X connect 20 0 21 0;
#X connect 21 0 36 0;
#X connect 21 1 34 0;
#X connect 21 1 10 0;
#X connect 21 1 19 0;
#X connect 22 0 8 0;
#X connect 30 0 21 0;
#X connect 31 0 39 0;
#X connect 32 0 33 0;
#X connect 33 0 2 0;
#X connect 33 1 31 1;
#X connect 34 0 39 2;
#X connect 35 0 31 1;
#X connect 36 0 7 0;
#X connect 37 0 33 0;
#X connect 38 0 7 0;
#X connect 39 0 22 0;
#X connect 39 0 42 0;
#X connect 40 0 35 0;
#X connect 42 0 41 0;
#X restore 227 182 pd modal;
#X obj 227 130 * 1;
#X connect 0 0 6 0;
#X connect 0 0 7 0;
#X connect 2 0 0 0;
#X connect 4 0 5 0;
#X connect 4 0 11 0;
#X connect 5 0 3 0;
#X connect 5 0 3 1;
#X connect 6 0 1 0;
#X connect 6 0 8 0;
#X connect 7 0 6 0;
#X connect 8 2 13 0;
#X connect 9 0 12 0;
#X connect 11 0 10 0;
#X connect 12 0 5 1;
#X connect 13 0 9 0;
#X restore 56 428 pd beepcollide;
#X msg 366 149 2;
#N canvas 71 287 544 400 s3_accel 0;
#X obj 33 162 s osc;
#X obj 33 32 tgl 15 0 empty empty empty 17 7 0 10 -262144 -1 -1 0 1
;
#X obj 162 308 OSCroute /magnitude;
#X floatatom 289 232 10 0 0 0 - - -;
#X floatatom 288 251 10 0 0 0 - - -;
#X text 369 251 velocity;
#X text 368 232 acceleration;
#X obj 313 311 tabwrite accel;
#X obj 371 280 f;
#X obj 402 280 + 1;
#X obj 345 277 bng 15 250 50 0 empty empty empty 17 7 0 10 -262144
-1 -1;
#X obj 429 299 mod 1000;
#X obj 291 283 * 10;
#X obj 23 238 OSCroute /object;
#X obj 23 306 OSCroute /magnitude;
#X obj 24 281 OSCroute /velocity /acceleration;
#X obj 33 10 inlet;
#X obj 24 210 r rosc;
#X obj 217 255 outlet;
#X obj 237 233 outlet;
#X msg 50 135 send /object/3s/destroy;
#X obj 23 260 OSCroute /3s;
#X obj 33 52 * 30;
#X msg 33 75 send /object/3s/velocity/magnitude/get \$1;
#X msg 33 97 send /object/3s/acceleration/magnitude/get \$1;
#X connect 1 0 22 0;
#X connect 2 0 3 0;
#X connect 3 0 10 0;
#X connect 3 0 12 0;
#X connect 3 0 19 0;
#X connect 4 0 18 0;
#X connect 8 0 9 0;
#X connect 9 0 11 0;
#X connect 10 0 8 0;
#X connect 11 0 8 1;
#X connect 11 0 7 1;
#X connect 12 0 7 0;
#X connect 13 0 21 0;
#X connect 14 0 4 0;
#X connect 15 0 14 0;
#X connect 15 1 2 0;
#X connect 16 0 1 0;
#X connect 17 0 13 0;
#X connect 20 0 0 0;
#X connect 21 0 15 0;
#X connect 22 0 23 0;
#X connect 22 0 24 0;
#X connect 23 0 0 0;
#X connect 24 0 0 0;
#X restore 258 417 pd s3_accel;
#X obj 258 395 tgl 15 0 empty empty empty 17 7 0 10 -262144 -1 -1 0
1;
#X floatatom 258 454 10 0 0 0 - - -;
#X floatatom 257 473 10 0 0 0 - - -;
#X text 338 473 velocity;
#X text 337 454 acceleration;
#X text 256 355 Tracks acceleration;
#X text 258 369 of 3rd marble.;
#X text 52 241 Smash 3 marbles together;
#X text 57 452 Also makes sound;
#X text 56 464 for MarbleBox demo.;
#X text 456 46 Give it some gravity;
#X text 511 161 clear the world;
#X text 330 133 reset counter;
#X text 54 383 objects collide;
#X text 55 369 Beep when any two;
#N canvas 5 46 450 300 forcestick 0;
#X obj 21 54 bng 15 250 50 0 empty empty empty 0 -6 0 8 -262144 -1
-1;
#X msg 21 143 send /object/stick/mass 2;
#X obj 21 217 s osc;
#X text 77 17 Force Stick;
#X obj 21 73 t b b b b b;
#X msg 21 96 send /object/prism/create stick 0 0 0.15;
#X msg 21 167 send /constraint/hinge/create c1 stick world 0 0 0 1
0 0;
#X msg 21 191 send /constraint/c1/response/spring 0.5 0.1;
#X msg 21 119 send /object/stick/size 0.2 0.02 0.3;
#X obj 22 15 inlet;
#X connect 0 0 4 0;
#X connect 1 0 2 0;
#X connect 4 0 7 0;
#X connect 4 1 6 0;
#X connect 4 2 1 0;
#X connect 4 3 8 0;
#X connect 4 4 5 0;
#X connect 5 0 2 0;
#X connect 6 0 2 0;
#X connect 7 0 2 0;
#X connect 8 0 2 0;
#X connect 9 0 0 0;
#X restore 340 285 pd forcestick;
#X obj 340 266 bng 15 250 50 0 empty empty empty 17 7 0 10 -262144
-1 -1;
#X text 338 245 Force Stick;
#N canvas 5 46 525 300 audioforce 0;
#X obj 25 32 r rosc;
#X floatatom 25 142 10 0 0 0 - - -;
#X obj 25 54 OSCroute /constraint;
#X obj 25 76 OSCroute /c1;
#X obj 25 98 OSCroute /force;
#X obj 25 120 OSCroute /magnitude;
#X obj 208 169 osc~;
#X obj 232 245 dac~;
#X floatatom 249 171 5 0 0 0 - - -;
#X obj 209 145 * -1000;
#X obj 230 216 *~;
#X obj 323 6 inlet;
#X obj 193 68 s osc;
#X msg 193 45 send /constraint/c1/force/magnitude/get;
#X obj 192 23 metro 10;
#X obj 170 7 tgl 15 0 empty empty empty 17 7 0 10 -262144 -1 -1 0 1
;
#X connect 0 0 2 0;
#X connect 2 0 3 0;
#X connect 3 0 4 0;
#X connect 4 0 5 0;
#X connect 5 0 1 0;
#X connect 5 0 9 0;
#X connect 6 0 10 0;
#X connect 9 0 6 0;
#X connect 9 0 8 0;
#X connect 10 0 7 0;
#X connect 10 0 7 1;
#X connect 11 0 10 1;
#X connect 11 0 14 0;
#X connect 13 0 12 0;
#X connect 14 0 13 0;
#X connect 15 0 14 0;
#X restore 472 284 pd audioforce;
#X obj 472 261 tgl 15 0 empty empty empty 17 7 0 10 -262144 -1 -1 0
1;
#X text 496 261 audio;
#X text 14 -17 Test patch for DIMPLE: The Dynamic Interactive Musically
PhysicaL Environment;
#X obj 22 349 loadbang;
#X msg 22 370 1;
#X text 15 87 Initialize;
#X text 15 76 Step 1:;
#X text 138 70 Step 2:;
#X text 455 35 Step 3:;
#X text 115 150 Step 4:;
#X text 17 217 Other demonstrations:;
#X text 21 328 Don't forget to turn on DSP!;
#N canvas 289 164 584 474 grab 0;
#X obj 35 374 list prepend send;
#X obj 35 397 list trim;
#X obj 35 420 s osc;
#X obj 159 -10 inlet;
#X obj 35 46 t b b b;
#X msg 72 78 /object/sphere/create sphere_proxy 0 0.1 0;
#X msg 53 106 /object/sphere_proxy/radius 0.03;
#X msg 35 136 /object/sphere_proxy/grab;
#X msg 236 246 /object/prism/create box_proxy 0 0.2 0;
#X msg 217 276 /object/box_proxy/size 0.1 0.1 0.1;
#X msg 217 298 /object/box_proxy/mass 0.1;
#X msg 200 333 /object/box_proxy/grab;
#X msg 381 57 /object/sphere_proxy/grab 0;
#X obj 159 16 route sphere box none;
#X msg 380 79 /object/box_proxy/grab 0;
#X obj 199 218 t b b b;
#X obj 200 364 list prepend send;
#X obj 200 387 list trim;
#X obj 200 410 s osc;
#X obj 380 108 list prepend send;
#X obj 380 131 list trim;
#X obj 380 154 s osc;
#X connect 0 0 1 0;
#X connect 1 0 2 0;
#X connect 3 0 13 0;
#X connect 4 0 7 0;
#X connect 4 1 6 0;
#X connect 4 2 5 0;
#X connect 5 0 0 0;
#X connect 6 0 0 0;
#X connect 7 0 0 0;
#X connect 8 0 16 0;
#X connect 9 0 16 0;
#X connect 10 0 16 0;
#X connect 11 0 16 0;
#X connect 12 0 19 0;
#X connect 13 0 4 0;
#X connect 13 1 15 0;
#X connect 13 2 12 0;
#X connect 13 2 14 0;
#X connect 14 0 19 0;
#X connect 15 0 11 0;
#X connect 15 1 9 0;
#X connect 15 1 10 0;
#X connect 15 2 8 0;
#X connect 16 0 17 0;
#X connect 17 0 18 0;
#X connect 19 0 20 0;
#X connect 20 0 21 0;
#X restore 223 304 pd grab;
#X msg 177 273 sphere;
#X msg 223 273 box;
#X msg 251 273 none;
#N canvas 421 204 655 436 snake 0;
#X obj 28 14 inlet;
#X obj 15 400 s osc;
#N canvas 0 0 450 300 itercount 0;
#X obj 86 110 until;
#X obj 89 170 f;
#X obj 120 172 + 1;
#X obj 164 172 sel 0;
#X obj 89 62 inlet;
#X obj 88 240 outlet;
#X msg 105 138 0;
#X obj 90 87 t f b;
#X connect 0 0 1 0;
#X connect 1 0 2 0;
#X connect 1 0 5 0;
#X connect 2 0 1 1;
#X connect 2 0 3 0;
#X connect 3 0 0 1;
#X connect 4 0 7 0;
#X connect 6 0 1 1;
#X connect 7 0 0 0;
#X connect 7 1 6 0;
#X restore 30 67 pd itercount;
#X obj 31 188 pack 0 0;
#X obj 30 86 t f f;
#X obj 31 214 t l l l;
#X obj 163 105 sel 0;
#X obj 222 127 - 1;
#X obj 190 155 pack 0 0 0;
#X obj 190 290 s osc;
#X msg 15 365 send /constraint/hinge/create hinge\$1world sn0 world
0 0 0 1 0 0;
#X msg 189 243 send /constraint/hinge\$1\$2/force/magnitude/get 100
;
#X obj 348 147 dac~;
#X obj 347 120 *~;
#X obj 411 147 / 127;
#X obj 411 12 vsl 15 128 0 127 0 0 empty empty empty 0 -9 0 10 -262144
-1 -1 0 1;
#X msg 28 42 5;
#X msg 190 186 send /constraint/hinge/create hinge\$1\$2 sn\$1 sn\$2
0 \$3 0 1 0 0;
#X msg 75 313 send /object/prism/create sn\$1 0 \$2 0;
#X obj 60 107 * 0.04;
#X msg 190 220 send /constraint/hinge\$1\$2/response spring 1 0.1;
#X msg 53 339 send /object/sn\$1/size 0.1 0.04 0.01;
#N canvas 253 332 598 330 audio 0;
#X obj 129 10 r rosc;
#X floatatom 73 86 5 0 0 0 - - -;
#X msg 12 109 \$1 100;
#X obj 12 139 line~;
#N canvas 49 119 450 300 fm 0;
#X obj 113 192 osc~;
#X obj 114 144 +~;
#X obj 114 106 *~;
#X obj 114 66 osc~;
#X obj 112 14 inlet~;
#X obj 174 13 inlet~;
#X obj 235 14 inlet~;
#X obj 111 229 outlet~;
#X connect 0 0 7 0;
#X connect 1 0 0 0;
#X connect 2 0 1 0;
#X connect 3 0 2 0;
#X connect 4 0 3 0;
#X connect 5 0 2 1;
#X connect 6 0 1 1;
#X restore 78 253 pd fm;
#X obj 176 174 sig~;
#X floatatom 194 91 5 0 0 0 - - -;
#X msg 133 114 \$1 100;
#X obj 133 144 line~;
#X obj 10 47 route /object/sn1/velocity/magnitude /object/sn2/velocity/magnitude
;
#N canvas 49 119 450 300 fm 0;
#X obj 113 192 osc~;
#X obj 114 144 +~;
#X obj 114 106 *~;
#X obj 114 66 osc~;
#X obj 112 14 inlet~;
#X obj 174 13 inlet~;
#X obj 235 14 inlet~;
#X obj 111 229 outlet~;
#X connect 0 0 7 0;
#X connect 1 0 0 0;
#X connect 2 0 1 0;
#X connect 3 0 2 0;
#X connect 4 0 3 0;
#X connect 5 0 2 1;
#X connect 6 0 1 1;
#X restore 145 254 pd fm;
#X obj 309 204 sig~;
#X floatatom 201 138 5 0 0 0 - - -;
#X obj 315 173 * 2;
#X floatatom 340 86 5 0 0 0 - - -;
#X msg 279 109 \$1 100;
#X obj 279 139 line~;
#X floatatom 461 91 5 0 0 0 - - -;
#X msg 400 114 \$1 100;
#X obj 400 144 line~;
#X obj 277 47 route /object/sn3/velocity/magnitude /object/sn4/velocity/magnitude
;
#X obj 77 289 outlet~;
#X obj 399 83 * 1000;
#X obj 132 83 * 1000;
#X obj 9 87 * 1000;
#X obj 276 87 * 1000;
#X connect 0 0 9 0;
#X connect 0 0 20 0;
#X connect 2 0 3 0;
#X connect 3 0 4 1;
#X connect 4 0 21 0;
#X connect 5 0 4 2;
#X connect 7 0 8 0;
#X connect 8 0 4 0;
#X connect 9 0 24 0;
#X connect 9 1 23 0;
#X connect 10 0 21 0;
#X connect 11 0 10 2;
#X connect 12 0 13 0;
#X connect 12 0 5 0;
#X connect 13 0 11 0;
#X connect 15 0 16 0;
#X connect 16 0 10 1;
#X connect 18 0 19 0;
#X connect 19 0 10 0;
#X connect 20 0 25 0;
#X connect 20 1 22 0;
#X connect 22 0 17 0;
#X connect 22 0 18 0;
#X connect 23 0 6 0;
#X connect 23 0 7 0;
#X connect 24 0 1 0;
#X connect 24 0 2 0;
#X connect 25 0 14 0;
#X connect 25 0 15 0;
#X restore 346 24 pd audio;
#X msg 139 267 send /object/sn\$1/velocity/magnitude/get 100;
#X obj 432 11 inlet;
#X obj 433 43 * 30;
#X connect 0 0 16 0;
#X connect 2 0 4 0;
#X connect 3 0 5 0;
#X connect 4 0 3 0;
#X connect 4 0 6 0;
#X connect 4 1 19 0;
#X connect 5 1 21 0;
#X connect 5 2 18 0;
#X connect 6 1 7 0;
#X connect 6 1 8 0;
#X connect 6 1 23 0;
#X connect 7 0 8 1;
#X connect 8 0 17 0;
#X connect 8 0 20 0;
#X connect 8 0 11 0;
#X connect 10 0 1 0;
#X connect 11 0 9 0;
#X connect 13 0 12 0;
#X connect 13 0 12 1;
#X connect 14 0 13 1;
#X connect 15 0 14 0;
#X connect 16 0 2 0;
#X connect 16 0 10 0;
#X connect 17 0 9 0;
#X connect 18 0 1 0;
#X connect 19 0 3 1;
#X connect 19 0 8 2;
#X connect 20 0 9 0;
#X connect 21 0 1 0;
#X connect 22 0 13 0;
#X connect 23 0 9 0;
#X connect 24 0 25 0;
#X connect 25 0 15 0;
#X restore 584 284 pd snake;
#X obj 584 261 bng 15 250 50 0 empty empty empty 17 7 0 10 -262144
-1 -1;
#X text 581 240 The Snake;
#X obj 635 260 tgl 15 0 empty empty empty 17 7 0 10 -262144 -1 -1 0
1;
#N canvas 430 278 450 300 meshtest 0;
#X obj 22 135 s osc;
#X msg 22 31 send /object/mesh/create test libdeps/chai3d/bin/resources/models/turntable.obj
;
#X msg 36 73 send /object/test/size 0.1;
#X msg 47 103 send /object/test/position 0 0 0.2;
#X connect 1 0 0 0;
#X connect 2 0 0 0;
#X connect 3 0 0 0;
#X restore 23 495 pd meshtest;
#X connect 0 0 1 0;
#X connect 2 0 13 0;
#X connect 3 0 2 0;
#X connect 6 0 8 0;
#X connect 7 0 1 0;
#X connect 8 0 7 0;
#X connect 11 0 10 0;
#X connect 15 0 14 0;
#X connect 17 0 16 0;
#X connect 18 0 20 0;
#X connect 21 0 13 1;
#X connect 22 0 25 0;
#X connect 22 1 24 0;
#X connect 23 0 22 0;
#X connect 39 0 38 0;
#X connect 42 0 41 0;
#X connect 45 0 46 0;
#X connect 46 0 18 0;
#X connect 55 0 54 0;
#X connect 56 0 54 0;
#X connect 57 0 54 0;
#X connect 59 0 58 0;
#X connect 61 0 58 1;
