#N canvas 172 48 1055 609 10;
#X obj 16 209 sendOSC;
#X obj 16 32 tgl 15 0 empty empty empty 17 7 0 10 -262144 -1 -1 1 1
;
#X msg 60 181 disconnect;
#X obj 16 82 tgl 15 0 empty empty empty 17 7 0 10 -262144 -1 -1 1 1
;
#X msg 16 103 send /graphics/enable \$1;
#X msg 16 52 send /haptics/enable \$1;
#X msg 16 157 connect 132.206.14.212 7770;
#X msg 16 136 connect localhost 7770;
#X obj 447 108 * 100;
#X obj 446 201 osc~;
#X obj 481 228 *~;
#X obj 480 293 dac~;
#X obj 593 57 print;
#X obj 494 57 OSCroute /force;
#X obj 494 83 OSCroute /magnitude;
#X obj 447 132 + 100;
#X obj 494 30 dumpOSC 7771;
#X msg 16 10 1;
#X obj 447 178 vline~;
#X msg 447 154 \$1 100;
#X obj 511 138 bng 15 250 50 0 empty empty empty 0 -6 0 8 -262144 -1
-1;
#X msg 536 137 stop;
#X obj 511 185 bng 15 250 50 0 empty empty empty 0 -6 0 8 -262144 -1
-1;
#X obj 511 113 t b b;
#X obj 511 161 delay 10;
#X obj 481 259 hip~ 5;
#X msg 511 208 0 100;
#X obj 20 284 bng 15 250 50 0 empty empty empty 0 -6 0 8 -262144 -1
-1;
#X msg 221 57 send /world/clear;
#X msg 668 90 send /object/one/radius 0.04;
#X msg 668 46 send /object/one/force 0 -4 0.2;
#X msg 20 373 send /object/stick/mass 2;
#X obj 20 459 s osc;
#X obj 23 181 r osc;
#X obj 221 80 s osc;
#X text 220 13 world;
#X text 48 4 turn on graphics and haptics;
#X text 18 264 Force Stick;
#X obj 20 303 t b b b b b;
#X msg 20 326 send /object/prism/create stick 0 0 0.15;
#X msg 20 349 send /object/stick/size 0.1 0.02 0.3;
#X msg 20 435 send /constraint/c1/response/spring 0.2 0.1;
#X msg 20 398 send /constraint/universal/create c1 stick world 0 0
0 1 0 0 0 1 0;
#X obj 602 581 s osc;
#X obj 603 289 bng 15 250 50 0 empty empty empty 17 7 0 10 -262144
-1 -1;
#X text 605 267 PebbleBox;
#X obj 602 313 t b b b b b b b b b b;
#X obj 673 133 s osc;
#X obj 809 289 s osc;
#X floatatom 801 212 5 0 0 0 - - -;
#X msg 221 33 send /world/gravity -1;
#X msg 802 256 send /object/sphere/create s\$1 0 0 1;
#X msg 668 68 send /object/sphere/create one 0 0 0.1;
#X msg 602 341 send /object/prism/create box/bottom 0 0 0.005;
#X msg 602 362 send /object/box/bottom/size 0.3 0.3 0.01;
#X msg 615 384 send /object/prism/create box/leftside 0 -0.145 0.05
;
#X msg 617 404 send /object/box/leftside/size 0.3 0.01 0.1;
#X msg 615 425 send /object/prism/create box/rightside 0 0.145 0.05
;
#X msg 615 445 send /object/box/rightside/size 0.3 0.01 0.1;
#X msg 614 465 send /object/prism/create box/backside -0.145 0 0.05
;
#X msg 616 485 send /object/box/backside/size 0.01 0.3 0.1;
#X msg 618 508 send /object/prism/create box/frontside 0.145 0 0.05
;
#X msg 620 524 send /object/box/frontside/size 0.01 0.3 0.1;
#X msg 631 545 send /constraint/universal/create boxhinge box world
0 0 0 0 1 0 1 0 0;
#X msg 185 545 send /constraint/fixed/create boxhinge box world;
#X connect 1 0 5 0;
#X connect 2 0 0 0;
#X connect 3 0 4 0;
#X connect 4 0 0 0;
#X connect 5 0 0 0;
#X connect 6 0 0 0;
#X connect 7 0 0 0;
#X connect 8 0 15 0;
#X connect 9 0 10 0;
#X connect 10 0 25 0;
#X connect 13 0 14 0;
#X connect 14 0 10 1;
#X connect 14 0 8 0;
#X connect 15 0 19 0;
#X connect 15 0 23 0;
#X connect 16 0 13 0;
#X connect 17 0 1 0;
#X connect 17 0 3 0;
#X connect 18 0 9 0;
#X connect 19 0 18 0;
#X connect 20 0 24 0;
#X connect 21 0 24 0;
#X connect 22 0 26 0;
#X connect 23 0 20 0;
#X connect 23 1 21 0;
#X connect 24 0 22 0;
#X connect 25 0 11 1;
#X connect 25 0 11 0;
#X connect 26 0 18 0;
#X connect 27 0 38 0;
#X connect 28 0 34 0;
#X connect 31 0 32 0;
#X connect 33 0 0 0;
#X connect 38 0 41 0;
#X connect 38 1 42 0;
#X connect 38 2 31 0;
#X connect 38 3 40 0;
#X connect 38 4 39 0;
#X connect 39 0 32 0;
#X connect 40 0 32 0;
#X connect 41 0 32 0;
#X connect 42 0 32 0;
#X connect 44 0 46 0;
#X connect 46 0 54 0;
#X connect 46 0 62 0;
#X connect 46 1 61 0;
#X connect 46 2 60 0;
#X connect 46 3 59 0;
#X connect 46 4 58 0;
#X connect 46 5 57 0;
#X connect 46 6 56 0;
#X connect 46 7 55 0;
#X connect 46 8 54 0;
#X connect 46 9 53 0;
#X connect 49 0 51 0;
#X connect 50 0 34 0;
#X connect 51 0 48 0;
#X connect 52 0 47 0;
#X connect 53 0 43 0;
#X connect 54 0 43 0;
#X connect 55 0 43 0;
#X connect 56 0 43 0;
#X connect 57 0 43 0;
#X connect 58 0 43 0;
#X connect 59 0 43 0;
#X connect 60 0 43 0;
#X connect 61 0 43 0;
#X connect 62 0 43 0;
#X connect 63 0 43 0;
#X connect 64 0 43 0;
