#N canvas 556 377 686 522 10;
#X msg 504 139 send /world/clear;
#X obj 456 176 s osc;
#X obj 281 150 bng 15 250 50 0 empty empty empty 0 -6 0 8 -262144 -1
-1;
#X floatatom 116 136 5 0 0 0 - - -;
#X text 116 161 move to create marbles;
#X text 115 39 MarbleBox;
#X floatatom 456 69 5 0 500 0 - - -;
#X msg 456 114 send /world/gravity \$1;
#X obj 456 91 / -100;
#N canvas 5 46 450 300 (subpatch) 0;
#X array accel 1000 float 0;
#X coords 0 1 1000 0 200 140 1;
#X restore 429 353 graph;
#N canvas 302 192 447 743 createbox 0;
#X obj 34 18 inlet;
#X obj 34 130 / 2;
#X obj 34 165 -;
#X floatatom 34 195 5 0 0 0 - - -;
#X obj 70 130 / 2;
#X obj 70 165 -;
#X floatatom 70 195 5 0 0 0 - - -;
#X floatatom 178 195 5 0 0 0 - - -;
#X obj 34 98 unpack 0 0 0 0 0;
#X obj 106 130 / 2;
#X obj 106 165 +;
#X floatatom 106 195 5 0 0 0 - - -;
#X obj 142 129 / 2;
#X obj 142 165 +;
#X floatatom 142 195 5 0 0 0 - - -;
#X obj 178 128 / 2;
#X obj 10 98 bng 15 250 50 0 empty empty empty 17 7 0 10 -262144 -1
-1;
#X obj 70 219 * -1;
#X obj 34 219 * -1;
#X obj 10 257 pack 0 0 0 0 0 0 0 0 0 0 0 0 0;
#X obj 10 281 t l l l;
#X msg 28 435 send /constraint/fixed/create fix1 leftside world;
#X msg 28 456 send /constraint/fixed/create fix2 rightside world;
#X msg 28 477 send /constraint/fixed/create fix3 backside world;
#X msg 28 498 send /constraint/fixed/create fix4 frontside world;
#X msg 28 520 send /constraint/fixed/create boxhinge bottom world;
#X obj 28 544 s osc;
#X obj 47 411 s osc;
#X obj 10 673 s osc;
#X obj 34 46 bng 15 250 50 0 empty empty empty 17 7 0 10 -262144 -1
-1;
#X text 57 43 bang to create box;
#X msg 47 305 send /object/prism/create leftside 0 \$7 \$9;
#X msg 47 326 send /object/prism/create rightside 0 \$6 \$9;
#X msg 47 347 send /object/prism/create backside \$4 0 \$9;
#X msg 47 368 send /object/prism/create frontside \$3 0 \$11;
#X msg 47 389 send /object/prism/create bottom 0 0 \$13;
#X msg 10 566 send /object/bottom/size \$2 \$5 \$12;
#X msg 10 587 send /object/leftside/size \$2 \$12 \$8;
#X msg 10 608 send /object/rightside/size \$2 \$12 \$8;
#X msg 10 629 send /object/backside/size \$12 \$5 \$8;
#X msg 10 650 send /object/frontside/size \$12 \$5 \$10;
#X msg 34 70 0.4 0.4 0.2 0.03 0.03;
#X connect 0 0 29 0;
#X connect 1 0 2 0;
#X connect 2 0 3 0;
#X connect 3 0 18 0;
#X connect 3 0 19 2;
#X connect 4 0 5 0;
#X connect 5 0 6 0;
#X connect 6 0 17 0;
#X connect 6 0 19 5;
#X connect 7 0 19 12;
#X connect 8 0 1 0;
#X connect 8 0 19 1;
#X connect 8 1 4 0;
#X connect 8 1 19 4;
#X connect 8 2 9 0;
#X connect 8 2 19 7;
#X connect 8 3 12 0;
#X connect 8 3 19 9;
#X connect 8 4 15 0;
#X connect 8 4 19 11;
#X connect 9 0 10 0;
#X connect 10 0 11 0;
#X connect 11 0 19 8;
#X connect 12 0 13 0;
#X connect 13 0 14 0;
#X connect 14 0 19 10;
#X connect 15 0 13 1;
#X connect 15 0 10 1;
#X connect 15 0 5 1;
#X connect 15 0 2 1;
#X connect 15 0 7 0;
#X connect 16 0 19 0;
#X connect 17 0 19 6;
#X connect 18 0 19 3;
#X connect 19 0 20 0;
#X connect 20 0 36 0;
#X connect 20 0 37 0;
#X connect 20 0 38 0;
#X connect 20 0 39 0;
#X connect 20 0 40 0;
#X connect 20 1 21 0;
#X connect 20 1 22 0;
#X connect 20 1 23 0;
#X connect 20 1 24 0;
#X connect 20 1 25 0;
#X connect 20 2 31 0;
#X connect 20 2 32 0;
#X connect 20 2 33 0;
#X connect 20 2 34 0;
#X connect 20 2 35 0;
#X connect 21 0 26 0;
#X connect 22 0 26 0;
#X connect 23 0 26 0;
#X connect 24 0 26 0;
#X connect 25 0 26 0;
#X connect 29 0 41 0;
#X connect 31 0 27 0;
#X connect 32 0 27 0;
#X connect 33 0 27 0;
#X connect 34 0 27 0;
#X connect 35 0 27 0;
#X connect 36 0 28 0;
#X connect 37 0 28 0;
#X connect 38 0 28 0;
#X connect 39 0 28 0;
#X connect 40 0 28 0;
#X connect 41 0 8 0;
#X connect 41 0 16 0;
#X restore 116 107 pd createbox;
#X obj 116 79 bng 15 250 50 0 empty empty empty 17 7 0 10 -262144 -1
-1;
#X text 139 81 bang to create box;
#N canvas 560 316 480 345 createmarble 0;
#X obj 58 265 s osc;
#X floatatom 28 54 5 0 0 0 - - -;
#X obj 55 25 + 1;
#X obj 28 193 list prepend send;
#X obj 28 148 makesymbol /object/%ss/radius;
#X obj 28 218 list trim;
#X obj 28 100 t l l;
#X obj 28 171 pack s 0.02;
#X obj 29 26 f;
#X obj 248 215 list prepend send;
#X obj 248 237 list trim;
#X obj 248 191 pack s 0.02;
#X obj 248 168 makesymbol /object/%ss/mass;
#X obj 157 51 / 25;
#X obj 194 55 / 500;
#X obj 28 77 pack 0 0 0;
#X msg 58 124 send /object/sphere/create \$1s \$3 \$3 \$2;
#X obj 29 -3 inlet;
#X obj 88 -1 inlet;
#X obj 248 148 * 1;
#X msg 4 301 send /object/collide/get 1;
#X obj 4 29 bng 15 250 50 0 empty empty empty 17 7 0 10 -262144 -1
-1;
#X obj 194 -1 % 8;
#X obj 157 24 + 10;
#X connect 1 0 15 0;
#X connect 2 0 8 1;
#X connect 2 0 22 0;
#X connect 3 0 5 0;
#X connect 4 0 7 0;
#X connect 5 0 0 0;
#X connect 6 0 4 0;
#X connect 6 1 16 0;
#X connect 6 1 19 0;
#X connect 7 0 3 0;
#X connect 8 0 2 0;
#X connect 8 0 1 0;
#X connect 9 0 10 0;
#X connect 10 0 0 0;
#X connect 11 0 9 0;
#X connect 12 0 11 0;
#X connect 13 0 15 1;
#X connect 14 0 15 2;
#X connect 15 0 6 0;
#X connect 16 0 0 0;
#X connect 17 0 8 0;
#X connect 17 0 21 0;
#X connect 18 0 8 1;
#X connect 19 0 12 0;
#X connect 20 0 0 0;
#X connect 21 0 20 0;
#X connect 22 0 14 0;
#X connect 22 0 23 0;
#X connect 23 0 13 0;
#X restore 281 173 pd createmarble;
#N canvas 530 283 462 312 connect 0;
#X obj 20 241 sendOSC;
#X obj 20 64 tgl 15 0 empty empty empty 17 7 0 10 -262144 -1 -1 1 1
;
#X msg 80 213 disconnect;
#X obj 20 114 tgl 15 0 empty empty empty 17 7 0 10 -262144 -1 -1 1
1;
#X msg 20 135 send /graphics/enable \$1;
#X msg 20 84 send /haptics/enable \$1;
#X msg 36 189 connect 132.206.14.212 7770;
#X msg 36 168 connect localhost 7770;
#X obj 27 213 r osc;
#X msg 20 42 1;
#X text 48 40 turn on graphics and haptics;
#X obj 20 0 inlet;
#X obj 278 104 dumpOSC 7771;
#X obj 278 127 s rosc;
#X text 277 86 Receive on port 7771;
#X msg 292 185 0;
#X obj 255 202 spigot 1;
#X obj 260 167 t b b;
#X obj 20 21 t b b;
#X connect 1 0 5 0;
#X connect 2 0 0 0;
#X connect 3 0 4 0;
#X connect 4 0 0 0;
#X connect 5 0 0 0;
#X connect 6 0 0 0;
#X connect 7 0 0 0;
#X connect 8 0 0 0;
#X connect 9 0 1 0;
#X connect 9 0 3 0;
#X connect 11 0 18 0;
#X connect 12 0 13 0;
#X connect 15 0 16 1;
#X connect 16 0 7 0;
#X connect 17 0 15 0;
#X connect 17 1 16 0;
#X connect 18 0 9 0;
#X connect 18 1 17 0;
#X restore 17 129 pd connect;
#X obj 17 108 bng 15 250 50 0 empty empty empty 17 7 0 10 -262144 -1
-1;
#N canvas 289 164 335 381 smash 0;
#X obj 36 312 list prepend send;
#X obj 36 335 list trim;
#X obj 36 358 s osc;
#X msg 36 73 /object/sphere/create s1 0 0.1 0;
#X msg 36 93 /object/sphere/create s2 0 -0.1 0;
#X msg 22 140 /object/s1/force 0 -0.5 0;
#X msg 22 160 /object/s2/force 0 0.5 0;
#X obj 35 40 bng 15 250 50 0 empty empty empty 17 7 0 10 -262144 -1
-1;
#X obj 32 15 inlet;
#X msg 36 113 /object/sphere/create s3 0 0 0.1;
#X msg 22 180 /object/s3/force 0 0 -0.5;
#X msg 22 216 /object/s1/collide/get 1;
#X msg 22 236 /object/s2/collide/get 1;
#X msg 22 256 /object/s3/collide/get 1;
#X connect 0 0 1 0;
#X connect 1 0 2 0;
#X connect 3 0 0 0;
#X connect 4 0 0 0;
#X connect 5 0 0 0;
#X connect 6 0 0 0;
#X connect 7 0 3 0;
#X connect 7 0 4 0;
#X connect 7 0 5 0;
#X connect 7 0 6 0;
#X connect 7 0 9 0;
#X connect 7 0 10 0;
#X connect 7 0 11 0;
#X connect 7 0 12 0;
#X connect 8 0 7 0;
#X connect 9 0 0 0;
#X connect 10 0 0 0;
#X connect 11 0 0 0;
#X connect 12 0 0 0;
#X connect 13 0 0 0;
#X restore 53 286 pd smash;
#X obj 53 263 bng 15 250 50 0 empty empty empty 17 7 0 10 -262144 -1
-1;
#X obj 56 404 tgl 15 0 empty empty empty 17 7 0 10 -262144 -1 -1 1
1;
#X text 80 404 audio;
#N canvas 397 578 474 324 beepcollide 0;
#X obj 78 47 OSCroute /object;
#X obj 78 133 print collided;
#X obj 79 26 r rosc;
#X obj 26 272 dac~;
#X obj 68 204 *~;
#X obj 31 11 inlet;
#X obj 31 229 *~;
#X obj 78 90 OSCroute /collide;
#X obj 91 68 OSCroute /s*;
#X obj 227 188 vline~;
#X obj 68 165 osc~ 150;
#X msg 227 168 \$1 1 \, 0 100 1;
#X obj 139 112 unpack s s 0;
#X obj 227 149 clip 0 1;
#X obj 227 130 * 5;
#X msg 209 14 \; pd dsp 1;
#X obj 209 -6 select 1;
#X connect 0 0 7 0;
#X connect 0 0 8 0;
#X connect 2 0 0 0;
#X connect 4 0 6 1;
#X connect 5 0 6 0;
#X connect 5 0 16 0;
#X connect 6 0 3 0;
#X connect 6 0 3 1;
#X connect 7 0 1 0;
#X connect 7 0 12 0;
#X connect 8 0 7 0;
#X connect 9 0 4 1;
#X connect 10 0 4 0;
#X connect 11 0 9 0;
#X connect 12 2 14 0;
#X connect 13 0 11 0;
#X connect 14 0 13 0;
#X connect 16 0 15 0;
#X restore 56 428 pd beepcollide;
#X msg 366 149 2;
#N canvas 71 287 540 396 s3_accel 0;
#X obj 22 164 s osc;
#X obj 22 36 metro 10;
#X obj 22 13 tgl 15 0 empty empty empty 17 7 0 10 -262144 -1 -1 0 1
;
#X obj 162 308 OSCroute /magnitude;
#X floatatom 289 232 10 0 0 0 - - -;
#X floatatom 288 251 10 0 0 0 - - -;
#X text 369 251 velocity;
#X text 368 232 acceleration;
#X obj 313 311 tabwrite accel;
#X obj 371 280 f;
#X obj 402 280 + 1;
#X obj 345 277 bng 15 250 50 0 empty empty empty 17 7 0 10 -262144
-1 -1;
#X obj 429 299 mod 1000;
#X obj 291 283 * 10;
#X obj 23 238 OSCroute /object;
#X obj 23 306 OSCroute /magnitude;
#X obj 24 281 OSCroute /velocity /acceleration;
#X obj 47 14 inlet;
#X obj 24 210 r rosc;
#X obj 217 255 outlet;
#X obj 237 233 outlet;
#X msg 33 75 send /object/3s/velocity/magnitude/get;
#X msg 33 97 send /object/3s/acceleration/magnitude/get;
#X msg 50 135 send /object/3s/destroy;
#X obj 23 260 OSCroute /3s;
#X connect 1 0 21 0;
#X connect 1 0 22 0;
#X connect 2 0 1 0;
#X connect 3 0 4 0;
#X connect 4 0 11 0;
#X connect 4 0 13 0;
#X connect 4 0 20 0;
#X connect 5 0 19 0;
#X connect 9 0 10 0;
#X connect 10 0 12 0;
#X connect 11 0 9 0;
#X connect 12 0 9 1;
#X connect 12 0 8 1;
#X connect 13 0 8 0;
#X connect 14 0 24 0;
#X connect 15 0 5 0;
#X connect 16 0 15 0;
#X connect 16 1 3 0;
#X connect 17 0 2 0;
#X connect 18 0 14 0;
#X connect 21 0 0 0;
#X connect 22 0 0 0;
#X connect 23 0 0 0;
#X connect 24 0 16 0;
#X restore 258 417 pd s3_accel;
#X obj 258 395 tgl 15 0 empty empty empty 17 7 0 10 -262144 -1 -1 0
1;
#X floatatom 258 454 10 0 0 0 - - -;
#X floatatom 257 473 10 0 0 0 - - -;
#X text 338 473 velocity;
#X text 337 454 acceleration;
#X text 256 355 Tracks acceleration;
#X text 258 369 of 3rd marble.;
#X text 52 241 Smash 3 marbles together;
#X text 57 452 Also makes sound;
#X text 56 464 for MarbleBox demo.;
#X text 456 46 Give it some gravity;
#X text 511 161 clear the world;
#X text 330 133 reset counter;
#X text 54 383 objects collide;
#X text 55 369 Beep when any two;
#N canvas 5 46 450 300 forcestick 0;
#X obj 21 54 bng 15 250 50 0 empty empty empty 0 -6 0 8 -262144 -1
-1;
#X msg 21 143 send /object/stick/mass 2;
#X obj 21 217 s osc;
#X text 77 17 Force Stick;
#X obj 21 73 t b b b b b;
#X msg 21 96 send /object/prism/create stick 0 0 0.15;
#X msg 21 167 send /constraint/hinge/create c1 stick world 0 0 0 1
0 0;
#X msg 21 191 send /constraint/c1/response/spring 0.5 0.1;
#X msg 21 119 send /object/stick/size 0.2 0.02 0.3;
#X obj 22 15 inlet;
#X connect 0 0 4 0;
#X connect 1 0 2 0;
#X connect 4 0 7 0;
#X connect 4 1 6 0;
#X connect 4 2 1 0;
#X connect 4 3 8 0;
#X connect 4 4 5 0;
#X connect 5 0 2 0;
#X connect 6 0 2 0;
#X connect 7 0 2 0;
#X connect 8 0 2 0;
#X connect 9 0 0 0;
#X restore 340 285 pd forcestick;
#X obj 340 266 bng 15 250 50 0 empty empty empty 17 7 0 10 -262144
-1 -1;
#X text 338 245 Force Stick;
#N canvas 5 46 525 300 audioforce 0;
#X obj 25 32 r rosc;
#X floatatom 25 142 10 0 0 0 - - -;
#X obj 25 54 OSCroute /constraint;
#X obj 25 76 OSCroute /c1;
#X obj 25 98 OSCroute /force;
#X obj 25 120 OSCroute /magnitude;
#X obj 208 169 osc~;
#X obj 232 245 dac~;
#X floatatom 249 171 5 0 0 0 - - -;
#X obj 209 145 * -1000;
#X obj 230 216 *~;
#X obj 323 6 inlet;
#X obj 193 68 s osc;
#X msg 193 45 send /constraint/c1/force/magnitude/get;
#X obj 192 23 metro 10;
#X connect 0 0 2 0;
#X connect 2 0 3 0;
#X connect 3 0 4 0;
#X connect 4 0 5 0;
#X connect 5 0 1 0;
#X connect 5 0 9 0;
#X connect 6 0 10 0;
#X connect 9 0 6 0;
#X connect 9 0 8 0;
#X connect 10 0 7 0;
#X connect 10 0 7 1;
#X connect 11 0 10 1;
#X connect 11 0 14 0;
#X connect 13 0 12 0;
#X connect 14 0 13 0;
#X restore 472 284 pd audioforce;
#X obj 472 261 tgl 15 0 empty empty empty 17 7 0 10 -262144 -1 -1 0
1;
#X text 496 261 audio;
#X text 14 -17 Test patch for DIMPLE: The Dynamic Interactive Musically
PhysicaL Environment;
#X obj 22 349 loadbang;
#X msg 22 370 1;
#X text 15 87 Initialize;
#X text 15 76 Step 1:;
#X text 138 70 Step 2:;
#X text 455 35 Step 3:;
#X text 115 150 Step 4:;
#X text 17 217 Other demonstrations:;
#X text 21 328 Don't forget to turn on DSP!;
#X connect 0 0 1 0;
#X connect 2 0 13 0;
#X connect 3 0 2 0;
#X connect 6 0 8 0;
#X connect 7 0 1 0;
#X connect 8 0 7 0;
#X connect 11 0 10 0;
#X connect 15 0 14 0;
#X connect 17 0 16 0;
#X connect 18 0 20 0;
#X connect 21 0 13 1;
#X connect 22 0 25 0;
#X connect 22 1 24 0;
#X connect 23 0 22 0;
#X connect 39 0 38 0;
#X connect 42 0 41 0;
#X connect 45 0 46 0;
#X connect 46 0 18 0;
