#N canvas 220 348 900 300 10;
#X obj 16 225 sendOSC;
#X obj 16 32 tgl 15 0 empty empty empty 17 7 0 10 -262144 -1 -1 0 1
;
#X msg 29 202 disconnect;
#X obj 16 98 tgl 15 0 empty empty empty 17 7 0 10 -262144 -1 -1 0 1
;
#X msg 16 119 send /graphics/enable \$1;
#X msg 16 52 send /haptics/enable \$1;
#X msg 16 173 connect 132.206.14.212 7770;
#X msg 16 152 connect localhost 7770;
#X msg 206 232 send /sphere/create 0.1 0.1 0 0.12;
#X msg 206 208 send /sphere/create 0 -0.1 0;
#X obj 496 28 dumpOSC 7770;
#X obj 483 117 * 100;
#X obj 485 169 osc~;
#X obj 540 198 *~;
#X obj 545 242 dac~;
#X obj 367 51 print;
#X obj 497 65 OSCroute /force;
#X obj 573 93 OSCroute /magnitude;
#X obj 484 143 + 100;
#X connect 1 0 5 0;
#X connect 2 0 0 0;
#X connect 3 0 4 0;
#X connect 4 0 0 0;
#X connect 5 0 0 0;
#X connect 6 0 0 0;
#X connect 7 0 0 0;
#X connect 8 0 0 0;
#X connect 9 0 0 0;
#X connect 10 0 16 0;
#X connect 11 0 18 0;
#X connect 12 0 13 0;
#X connect 13 0 14 0;
#X connect 13 0 14 1;
#X connect 16 0 17 0;
#X connect 17 0 13 1;
#X connect 17 0 11 0;
#X connect 18 0 12 0;
